<svg width="41" height="17" viewBox="0 0 41 17" fill="none" xmlns="http://www.w3.org/2000/svg">
<path fill-rule="evenodd" clip-rule="evenodd" d="M40.9998 7.93327C40.8904 7.76284 40.7458 7.61791 40.5757 7.50827L33.5067 0.424937C33.2345 0.220329 32.8977 0.120993 32.5582 0.145167C32.2188 0.169342 31.8994 0.315403 31.6588 0.556536C31.4181 0.797668 31.2724 1.11769 31.2482 1.45784C31.2241 1.798 31.3232 2.13546 31.5274 2.40827L36.193 7.08327C35.818 7.08327 35.4584 7.23253 35.1932 7.4982C34.9281 7.76388 34.7792 8.12421 34.7792 8.49994C34.7792 8.87566 34.9281 9.236 35.1932 9.50167C35.4584 9.76735 35.818 9.9166 36.193 9.9166L31.5274 14.5916C31.2684 14.8564 31.1233 15.2125 31.1233 15.5833C31.1233 15.9541 31.2684 16.3101 31.5274 16.5749C31.7917 16.8345 32.147 16.9799 32.5171 16.9799C32.8872 16.9799 33.2425 16.8345 33.5067 16.5749L40.5757 9.4916L40.8585 9.0666C40.9363 8.88787 40.9765 8.69495 40.9765 8.49994C40.9765 8.30492 40.9363 8.11201 40.8585 7.93327H40.9998Z" fill="#161616"/>
<path d="M37.1775 7.08313H12.3052C11.7557 7.08313 11.3103 7.71739 11.3103 8.4998C11.3103 9.2822 11.7557 9.91646 12.3052 9.91646H37.1775C37.7269 9.91646 38.1724 9.2822 38.1724 8.4998C38.1724 7.71739 37.7269 7.08313 37.1775 7.08313Z" fill="#161616"/>
</svg>
