<svg width="29" height="12" viewBox="0 0 29 12" fill="none" xmlns="http://www.w3.org/2000/svg">
<path fill-rule="evenodd" clip-rule="evenodd" d="M29 5.59998C28.9226 5.47967 28.8203 5.37737 28.7 5.29998L23.7 0.299977C23.5074 0.155548 23.2692 0.0854286 23.0291 0.102493C22.789 0.119557 22.5631 0.222659 22.3929 0.39287C22.2227 0.563081 22.1196 0.788978 22.1025 1.02909C22.0855 1.2692 22.1556 1.5074 22.3 1.69998L25.6 4.99998C25.3348 4.99998 25.0804 5.10533 24.8929 5.29287C24.7054 5.48041 24.6 5.73476 24.6 5.99998C24.6 6.26519 24.7054 6.51955 24.8929 6.70708C25.0804 6.89462 25.3348 6.99998 25.6 6.99998L22.3 10.3C22.1168 10.4869 22.0141 10.7382 22.0141 11C22.0141 11.2617 22.1168 11.513 22.3 11.7C22.4869 11.8832 22.7382 11.9858 23 11.9858C23.2618 11.9858 23.5131 11.8832 23.7 11.7L28.7 6.69998L28.9 6.39998C28.9551 6.27381 28.9835 6.13764 28.9835 5.99998C28.9835 5.86232 28.9551 5.72614 28.9 5.59998H29Z" fill="white"/>
<path d="M26 5H1C0.447715 5 0 5.44772 0 6C0 6.55228 0.447715 7 1 7H26C26.5523 7 27 6.55228 27 6C27 5.44772 26.5523 5 26 5Z" fill="white"/>
</svg>
