<svg width="37" height="37" viewBox="0 0 37 37" fill="none" xmlns="http://www.w3.org/2000/svg">
<path d="M16.061 12.4401L15.4938 15.6817L18.4639 14.1512L21.4339 15.6817L20.8667 12.4401L23.2695 10.1443L19.9489 9.6713L18.4639 6.72192L16.9788 9.6713L13.6582 10.1443L16.061 12.4401Z" fill="black"/>
<path d="M31.283 2.81836C30.7268 2.81836 30.2777 2.36455 30.2789 1.80838C30.2792 1.68676 30.2793 1.56572 30.2793 1.44531V1C30.2793 0.447715 29.8316 0 29.2793 0H7.57617C7.02389 0 6.57617 0.447715 6.57617 1V1.44531C6.57617 1.56572 6.57629 1.68676 6.57655 1.80838C6.57776 2.36455 6.12864 2.81836 5.57247 2.81836H1C0.447715 2.81836 0 3.26607 0 3.81836V4.26367C0 7.96259 0.972262 11.0878 2.97236 13.8181C4.67046 16.136 6.80612 17.7629 8.69037 19.1982C9.86296 20.0914 10.9081 20.8888 11.6473 21.6949C12.9943 23.478 14.6337 25.0432 16.5366 26.3635C16.8127 26.555 16.9824 26.8674 16.9824 27.2034V28.3281C16.9824 28.7272 16.6589 29.0508 16.2598 29.0508V29.0508C12.6735 29.0508 9.75586 31.9684 9.75586 35.5547V36C9.75586 36.5523 10.2036 37 10.7559 37H26.0996C26.6519 37 27.0996 36.5523 27.0996 36V35.5547C27.0996 31.9684 24.182 29.0508 20.5957 29.0508V29.0508C20.1966 29.0508 19.873 28.7272 19.873 28.3281V27.2034C19.873 26.8674 20.0428 26.555 20.3189 26.3635C22.2181 25.0457 23.855 23.484 25.2005 21.7051C25.947 20.8929 27.0134 20.0888 28.2103 19.1875C30.1148 17.7535 32.2734 16.1281 33.9906 13.8129C36.0157 11.0828 37 7.95926 37 4.26367V3.81836C37 3.26607 36.5523 2.81836 36 2.81836H31.283ZM3.08936 6.79356C2.99375 6.21435 3.45805 5.70898 4.0451 5.70898H5.711C6.24407 5.70898 6.68225 6.12712 6.71799 6.659C6.88894 9.20239 7.26037 11.8629 8.0587 14.4984V14.4984C8.11926 14.6983 7.88308 14.8566 7.72697 14.7178C5.58329 12.812 3.69102 10.4385 3.08936 6.79356ZM20.5957 31.9414C21.5276 31.9414 22.3781 32.2959 23.0196 32.8772C23.5542 33.3616 23.0988 34.1094 22.3774 34.1094H14.478C13.7567 34.1094 13.3013 33.3616 13.8359 32.8772C14.4773 32.2959 15.3279 31.9414 16.2598 31.9414H20.5957ZM23.0476 19.7782C22.7715 20.08 22.5181 20.3911 22.2954 20.7163C22.2944 20.7178 22.2948 20.7199 22.2963 20.721V20.721C22.298 20.7221 22.2983 20.7244 22.297 20.726C21.3682 21.8203 20.2723 22.8428 18.9783 23.7733C18.6491 24.0101 18.2064 24.0101 17.8772 23.7733C16.5832 22.8429 15.4873 21.8204 14.5585 20.7259C14.5572 20.7244 14.5575 20.722 14.5591 20.7209V20.7209C14.5607 20.7198 14.5611 20.7177 14.56 20.7162C14.3342 20.3865 14.0777 20.0712 13.7983 19.7653C10.394 15.1402 9.63499 9.40885 9.49491 3.90351C9.48073 3.34628 9.93138 2.89062 10.4888 2.89062H26.3667C26.9241 2.89062 27.3747 3.34628 27.3606 3.90351C27.2203 9.41399 26.46 15.1507 23.0476 19.7782ZM29.1645 14.7445C28.9902 14.8966 28.7296 14.7197 28.7967 14.4984V14.4984C29.5951 11.8629 29.9665 9.20241 30.1374 6.65902C30.1732 6.12714 30.6113 5.70898 31.1444 5.70898H32.9521C33.5397 5.70898 34.0043 6.21541 33.9069 6.79495C33.2918 10.4557 31.3528 12.8333 29.1645 14.7445Z" fill="black"/>
</svg>
