<svg width="299" height="71" viewBox="0 0 299 71" fill="none" xmlns="http://www.w3.org/2000/svg">
<g filter="url(#filter0_d)">
<path fill-rule="evenodd" clip-rule="evenodd" d="M50.1586 14.4298L49.5562 14.0747C46.1427 16.0884 29.3119 26.0198 27.2801 27.2181H26.8785C24.8467 26.0198 8.01555 16.0884 4.60245 14.0747L4 14.4298V48.4996L4.2012 48.8551C5.50402 49.6239 12.7806 53.917 14.9366 55.1897L15.5395 54.8341V34.8569L14.9366 34.5013C13.9863 35.0621 12.1473 36.1475 11.1966 36.7086L10.5941 36.3527V26.1024L11.1966 25.7468L15.5395 28.3097L19.6411 30.7293L20.4852 31.2277C20.489 31.2297 25.7742 34.3483 26.8785 35.0002L27.0797 35.3554V54.3356L26.8785 54.6908C26.0036 55.2072 22.5067 57.2708 21.088 58.1081V58.8188C22.5067 59.6557 26.004 61.7197 26.8785 62.2357H27.2801C29.4114 60.9782 47.8269 50.1118 49.9578 48.8551L50.1586 48.4996V14.4298ZM34.2755 31.5829V30.8722C36.0421 29.8301 41.1955 26.7893 42.962 25.7468L43.5641 26.1024V36.3527L42.962 36.7086C41.1955 35.6661 36.0421 32.6254 34.2755 31.5829ZM38.8196 6.80743H38.418C37.0142 5.97911 28.6843 1.06366 27.2801 0.235718H26.8785C25.4747 1.06366 17.1441 5.97911 15.7407 6.80743H15.339C14.0351 6.0383 6.75845 1.74517 4.60245 0.472494L4 0.827659V7.64589L4.2012 8.00144C6.33167 9.25854 24.7473 20.1246 26.8785 21.382H27.2801C29.4114 20.1246 47.8269 9.25854 49.9578 8.00144L50.1586 7.64589V0.827659L49.5558 0.472494C47.3998 1.74517 40.1232 6.0383 38.8196 6.80743Z" fill="#00FF93"/>
<path fill-rule="evenodd" clip-rule="evenodd" d="M95.9497 46.9098H78.2552V10.0227H95.8098V16.8224H85.0323V25.0424H94.3139V31.8798H85.0323V40.0989H95.9497V46.9098Z" fill="#00FF93"/>
<path fill-rule="evenodd" clip-rule="evenodd" d="M119.936 46.91L112.527 27.5789V46.91H105.771V10.0229H113.041L120.475 29.3635V10.0229H127.207V46.8629L127.23 46.91H119.936Z" fill="#00FF93"/>
<path fill-rule="evenodd" clip-rule="evenodd" d="M155.173 16.8234H148.441V46.9099H141.64V16.8234H134.907V10.0228H155.173V16.8234Z" fill="#00FF93"/>
<path fill-rule="evenodd" clip-rule="evenodd" d="M185.417 46.91H178.147L172.373 31.88H170.363V46.91H163.56V10.0229H179.853L184.178 13.8929V27.4375L179.551 31.7866L185.417 46.91ZM170.363 25.0426H177.399V16.8012H170.363V25.0426Z" fill="#00FF93"/>
<path fill-rule="evenodd" clip-rule="evenodd" d="M216.07 43.0583L211.699 46.9094H199.076L194.752 43.0583V13.8932L199.076 10.0223H211.699L216.07 13.8932V43.0583ZM201.531 40.0994H209.267V16.8306H201.531V40.0994Z" fill="#00FF93"/>
<path fill-rule="evenodd" clip-rule="evenodd" d="M247.28 30.4715L242.886 34.3887H233.606V46.9098H226.825V10.0227H242.886L247.28 13.9124V30.4715ZM233.606 27.5787H240.501V16.825H233.606V27.5787Z" fill="#00FF93"/>
<path fill-rule="evenodd" clip-rule="evenodd" d="M263.181 10.0202H260.732L256.379 13.8928V46.9099H263.181V10.0202Z" fill="#00FF93"/>
<path fill-rule="evenodd" clip-rule="evenodd" d="M279.531 40.0993H287.267V16.8305H279.531V40.0993ZM286.644 51.7308L282.1 46.9093H277.051L272.751 43.0582V13.8931L277.099 10.0231H289.7L294.069 13.8931V43.0299L289.841 46.7688L294.451 51.7308H286.644Z" fill="#00FF93"/>
</g>
<defs>
<filter id="filter0_d" x="0" y="0" width="299" height="72" filterUnits="userSpaceOnUse" color-interpolation-filters="sRGB">
<feFlood flood-opacity="0" result="BackgroundImageFix"/>
<feColorMatrix in="SourceAlpha" type="matrix" values="0 0 0 0 0 0 0 0 0 0 0 0 0 0 0 0 0 0 127 0"/>
<feOffset dy="4"/>
<feGaussianBlur stdDeviation="2"/>
<feColorMatrix type="matrix" values="0 0 0 0 0 0 0 0 0 0 0 0 0 0 0 0 0 0 0.25 0"/>
<feBlend mode="normal" in2="BackgroundImageFix" result="effect1_dropShadow"/>
<feBlend mode="normal" in="SourceGraphic" in2="effect1_dropShadow" result="shape"/>
</filter>
</defs>
</svg>
