<svg xmlns="http://www.w3.org/2000/svg" xmlns:xlink="http://www.w3.org/1999/xlink" width="1440px" height="1119px" viewBox="0 0 1440 1119" version="1.1">
    <!-- Generator: Sketch 58 (84663) - https://sketch.com -->
    <title>Rectangle Copy 2</title>
    <desc>Created with Sketch.</desc>
    <defs>
        <path d="M1447.38058,686.701209 L1447.38058,689.152385 L723.880581,1120 L0.380581259,689.152385 L0.380581259,686.701209 L723.880581,1117.54882 L1447.38058,686.701209 Z M1447.38058,637.374784 L1447.38058,639.842411 L723.880581,1070.67358 L0.380581259,639.842411 L0.380581259,637.374784 L723.880581,1068.05789 L1447.38058,637.374784 Z M1447.38058,589.982729 L1447.38058,592.614764 L723.880581,1023.28152 L0.380581259,592.614764 L0.380581259,589.982729 L723.880581,1020.81399 L1447.38058,589.982729 Z M1447.38058,541.623489 L1447.38058,544.074572 L723.880581,974.92228 L0.380581259,544.074572 L0.380581259,541.623489 L723.880581,972.454747 L1447.38058,541.623489 Z M1447.38058,493.264249 L1447.38058,495.732719 L723.880581,926.56304 L0.380581259,495.732719 L0.380581259,493.264249 L723.880581,924.09457 L1447.38058,493.264249 Z M1447.38058,440.069085 L1447.38058,442.70112 L723.880581,873.367876 L0.380581259,442.70112 L0.380581259,440.069085 L723.880581,870.900343 L1447.38058,440.069085 Z M1447.38058,392.677029 L1447.38058,395.128205 L723.880581,825.97582 L0.380581259,395.128205 L0.380581259,392.677029 L723.880581,823.343685 L1447.38058,392.677029 Z M1447.38058,344.317789 L1447.38058,346.786259 L723.880581,777.61658 L0.380581259,346.786259 L0.380581259,344.317789 L723.880581,775.14811 L1447.38058,344.317789 Z M1447.38058,294.991364 L1447.38058,297.458897 L723.880581,728.290155 L0.380581259,297.458897 L0.380581259,294.991364 L723.880581,725.822622 L1447.38058,294.991364 Z M1447.38058,249.533679 L1447.38058,251.984855 L723.880581,682.83247 L0.380581259,251.984855 L0.380581259,249.533679 L723.880581,680.200335 L1447.38058,249.533679 Z M1447.38058,197.305699 L1447.38058,199.937735 L723.880581,630.604491 L0.380581259,199.937735 L0.380581259,197.305699 L723.880581,628.136958 L1447.38058,197.305699 Z M1447.38058,148.946459 L1447.38058,151.397635 L723.880581,582.24525 L0.380581259,151.397635 L0.380581259,148.946459 L723.880581,579.777624 L1447.38058,148.946459 Z M1447.38058,101.554404 L1447.38058,104.006511 L723.880581,534.853195 L0.380581259,104.006511 L0.380581259,101.554404 L723.880581,532.401088 L1447.38058,101.554404 Z M1447.38058,51.2607945 L1447.38058,53.7284211 L723.880581,484.559585 L0.380581259,53.7284211 L0.380581259,51.2607945 L723.880581,482.10841 L1447.38058,51.2607945 Z M1447.38058,0 L1447.38058,2.46753298 L723.880581,433.298791 L0.380581259,2.46753298 L0.380581259,0 L723.880581,430.666756 L1447.38058,0 Z" id="path-1"/>
        <radialGradient cx="51.27124%" cy="44.2908404%" fx="51.27124%" fy="44.2908404%" r="42.9045192%" gradientTransform="translate(0.512712,0.442908),scale(0.791754,1.000000),rotate(88.054511),scale(1.000000,1.342756),translate(-0.512712,-0.442908)" id="radialGradient-3">
            <stop stop-color="#131313" stop-opacity="0" offset="0%"/>
            <stop stop-color="#00FF93" offset="50.4460515%"/>
            <stop stop-color="#121212" stop-opacity="0" offset="100%"/>
        </radialGradient>
    </defs>
    <g id="Page-1" stroke="none" stroke-width="1" fill="none" fill-rule="evenodd">
        <g id="Homepage" transform="translate(0.000000, -6264.000000)">
            <g id="Rectangle-Copy-2" transform="translate(719.000000, 6824.000000) scale(1, -1) translate(-719.000000, -6824.000000) translate(-5.000000, 6264.000000)">
                <mask id="mask-2" fill="white">
                    <use xlink:href="#path-1"/>
                </mask>
                <use id="Mask" fill="#00FF93" opacity="0.099999994" xlink:href="#path-1"/>
                <rect id="Rectangle" fill="url(#radialGradient-3)" mask="url(#mask-2)" x="0.380581259" y="0" width="1431" height="1133"/>
            </g>
        </g>
    </g>
</svg>