<svg width="35" height="35" viewBox="0 0 35 35" fill="none" xmlns="http://www.w3.org/2000/svg">
<path d="M25.2612 17.2829V15.9077C25.2612 14.6126 24.6564 13.4566 23.7151 12.7055C25.2468 11.3776 26.2169 9.41864 26.2169 7.23701C26.2169 3.24654 22.9704 0 18.9799 0C16.5657 0 14.4238 1.18881 13.1084 3.01128C11.7931 1.18881 9.65149 0 7.23701 0C3.24654 0 0 3.24654 0 7.23701C0 9.49848 1.04301 11.5207 2.67296 12.8489C1.82968 13.5998 1.29723 14.6925 1.29723 15.9077V30.8595C1.29723 33.1182 3.13492 34.9559 5.39371 34.9559H21.1647C23.4235 34.9559 25.2612 33.1182 25.2612 30.8595V29.4015L34.9559 35V11.6163L25.2612 17.2829ZM18.9799 2.7309C21.4646 2.7309 23.486 4.75231 23.486 7.23701C23.486 9.72172 21.4646 11.7431 18.9799 11.7431C16.4954 11.7431 14.474 9.72172 14.474 7.23701C14.474 4.75231 16.4954 2.7309 18.9799 2.7309ZM13.3763 11.8112H12.8406C12.9333 11.698 13.0227 11.5816 13.1084 11.4627C13.1944 11.5816 13.2836 11.698 13.3763 11.8112ZM7.23701 2.7309C9.72172 2.7309 11.7431 4.75231 11.7431 7.23701C11.7431 9.72172 9.72172 11.7431 7.23701 11.7431C4.75231 11.7431 2.7309 9.72172 2.7309 7.23701C2.7309 4.75231 4.75231 2.7309 7.23701 2.7309ZM32.225 30.2693L22.5303 24.6708V30.8595C22.5303 31.6125 21.9177 32.225 21.1647 32.225H5.39371C4.64069 32.225 4.02813 31.6125 4.02813 30.8595V15.9077C4.02813 15.1547 4.64069 14.5421 5.39371 14.5421H21.1647C21.9177 14.5421 22.5303 15.1547 22.5303 15.9077V22.0424L32.225 16.3758V30.2693ZM8.80714 17.9558C8.80714 18.7102 8.19592 19.3214 7.44183 19.3214C6.68774 19.3214 6.07624 18.7102 6.07624 17.9558C6.07624 17.2017 6.68774 16.5905 7.44183 16.5905C8.19592 16.5905 8.80714 17.2017 8.80714 17.9558Z" fill="white"/>
</svg>
