<svg width="35" height="35" viewBox="0 0 35 35" fill="none" xmlns="http://www.w3.org/2000/svg">
<g clip-path="url(#clip0)">
<path d="M18.418 8.77175C18.043 8.01884 16.9606 8.01159 16.5821 8.77175L9.40433 23.1956C9.24149 23.5227 9.26508 23.9118 9.46626 24.2169L13.3984 30.1807V33.9747C13.3984 34.541 13.8575 35.0001 14.4238 35.0001H20.5762C21.1425 35.0001 21.6016 34.541 21.6016 33.9747V30.1807L25.5337 24.2169C25.7349 23.9118 25.7585 23.5227 25.5957 23.1956L18.418 8.77175ZM19.5508 32.9493H15.4492V30.8985H19.5508V32.9493ZM20.0241 28.8477H14.976L11.5033 23.5808L16.4746 13.5907V23.6524C16.4746 24.2187 16.9337 24.6778 17.5 24.6778C18.0663 24.6778 18.5254 24.2187 18.5254 23.6524V13.5907L23.4967 23.5808L20.0241 28.8477Z" fill="white"/>
<path d="M31.9238 0C30.5871 0 29.4473 0.857295 29.024 2.05078H20.5762V1.02539C20.5762 0.459102 20.1171 0 19.5508 0H15.4492C14.8829 0 14.4238 0.459102 14.4238 1.02539V2.05078H5.97598C5.5527 0.857295 4.41294 0 3.07617 0C1.37997 0 0 1.37997 0 3.07617C0 4.77237 1.37997 6.15234 3.07617 6.15234C4.41294 6.15234 5.5527 5.29437 5.97598 4.10088H9.81183C5.03378 6.84489 2.05078 11.9142 2.05078 17.4316C2.05078 17.9979 2.50988 18.457 3.07617 18.457C3.64246 18.457 4.10156 17.9979 4.10156 17.4316C4.10156 11.2448 8.46282 5.86387 14.4238 4.45826V5.12695C14.4238 5.69324 14.8829 6.15234 15.4492 6.15234H19.5508C20.1171 6.15234 20.5762 5.69324 20.5762 5.12695V4.45819C26.5372 5.86387 30.8984 11.2448 30.8984 17.4316C30.8984 17.9979 31.3575 18.457 31.9238 18.457C32.4901 18.457 32.9492 17.9979 32.9492 17.4316C32.9492 11.9212 29.9722 6.84899 25.1882 4.10156H29.024C29.4473 5.29505 30.5871 6.15234 31.9238 6.15234C33.62 6.15234 35 4.77237 35 3.07617C35 1.37997 33.62 0 31.9238 0ZM3.07617 4.10156C2.51077 4.10156 2.05078 3.64157 2.05078 3.07617C2.05078 2.51077 2.51077 2.05078 3.07617 2.05078C3.64157 2.05078 4.10156 2.51077 4.10156 3.07617C4.10156 3.64157 3.64157 4.10156 3.07617 4.10156ZM18.5254 4.10156H16.4746V2.05078H18.5254V4.10156ZM31.9238 4.10156C31.3584 4.10156 30.8984 3.64157 30.8984 3.07617C30.8984 2.51077 31.3584 2.05078 31.9238 2.05078C32.4892 2.05078 32.9492 2.51077 32.9492 3.07617C32.9492 3.64157 32.4892 4.10156 31.9238 4.10156Z" fill="white"/>
</g>
<defs>
<clipPath id="clip0">
<rect width="35" height="35" fill="white"/>
</clipPath>
</defs>
</svg>
