<svg width="37" height="37" viewBox="0 0 37 37" fill="none" xmlns="http://www.w3.org/2000/svg">
<g clip-path="url(#clip0)">
<path d="M18.5 34.302C9.7865 34.302 2.69792 27.2135 2.69792 18.5C2.69792 9.78646 9.7865 2.69788 18.5 2.69788C27.2135 2.69788 34.3021 9.78646 34.3021 18.5C34.3021 27.2135 27.2135 34.302 18.5 34.302ZM18.5 5.78121C11.487 5.78121 5.78125 11.4869 5.78125 18.5C5.78125 25.513 11.487 31.2187 18.5 31.2187C25.513 31.2187 31.2187 25.513 31.2187 18.5C31.2187 11.4869 25.513 5.78121 18.5 5.78121Z" fill="white"/>
<path d="M18.5 8.47917C17.649 8.47917 16.9583 7.7885 16.9583 6.9375V1.54167C16.9583 0.690667 17.649 0 18.5 0C19.351 0 20.0417 0.690667 20.0417 1.54167V6.9375C20.0417 7.7885 19.351 8.47917 18.5 8.47917Z" fill="white"/>
<path d="M35.4583 20.0417H30.0625C29.2115 20.0417 28.5208 19.351 28.5208 18.5C28.5208 17.649 29.2115 16.9584 30.0625 16.9584H35.4583C36.3093 16.9584 37 17.649 37 18.5C37 19.351 36.3093 20.0417 35.4583 20.0417Z" fill="white"/>
<path d="M18.5 37C17.649 37 16.9583 36.3094 16.9583 35.4584V30.0625C16.9583 29.2115 17.649 28.5209 18.5 28.5209C19.351 28.5209 20.0417 29.2115 20.0417 30.0625V35.4584C20.0417 36.3094 19.351 37 18.5 37Z" fill="white"/>
<path d="M6.9375 20.0417H1.54167C0.690667 20.0417 0 19.351 0 18.5C0 17.649 0.690667 16.9584 1.54167 16.9584H6.9375C7.7885 16.9584 8.47917 17.649 8.47917 18.5C8.47917 19.351 7.7885 20.0417 6.9375 20.0417Z" fill="white"/>
<path d="M18.5 23.125C15.9501 23.125 13.875 21.0499 13.875 18.5C13.875 15.9501 15.9501 13.875 18.5 13.875C21.0499 13.875 23.125 15.9501 23.125 18.5C23.125 21.0499 21.0499 23.125 18.5 23.125ZM18.5 16.9583C17.6505 16.9583 16.9583 17.6505 16.9583 18.5C16.9583 19.3495 17.6505 20.0417 18.5 20.0417C19.3495 20.0417 20.0417 19.3495 20.0417 18.5C20.0417 17.6505 19.3495 16.9583 18.5 16.9583Z" fill="white"/>
</g>
<defs>
<clipPath id="clip0">
<rect width="37" height="37" fill="white"/>
</clipPath>
</defs>
</svg>
