<svg width="37" height="37" viewBox="0 0 37 37" fill="none" xmlns="http://www.w3.org/2000/svg">
<path d="M30.5659 14.6652C30.4322 14.4256 30.2369 14.2262 30.0004 14.0873C29.7638 13.9484 29.4945 13.8751 29.2202 13.8751H20.0014L21.5803 1.81151C21.6263 1.46153 21.5508 1.10636 21.3664 0.805353C21.182 0.504346 20.8999 0.275729 20.5672 0.157702C20.2346 0.0396744 19.8715 0.0393849 19.5386 0.156882C19.2057 0.274379 18.9233 0.502545 18.7384 0.803258L6.45749 20.7759C6.31386 21.0095 6.23514 21.2772 6.22946 21.5514C6.22377 21.8256 6.29132 22.0963 6.42514 22.3357C6.55896 22.5751 6.75421 22.7744 6.99075 22.9131C7.22729 23.0519 7.49656 23.1251 7.7708 23.1251H16.8381L15.4192 35.2079C15.3782 35.5567 15.4575 35.9091 15.6441 36.2067C15.8307 36.5042 16.1132 36.7292 16.4451 36.8443C16.7769 36.9594 17.1381 36.9578 17.4688 36.8397C17.7996 36.7215 18.0801 36.494 18.264 36.1947L30.5339 16.2244C30.6774 15.9908 30.756 15.7232 30.7616 15.4491C30.7672 15.175 30.6997 14.9044 30.5659 14.6652V14.6652ZM19.2971 28.6236L20.1026 21.7641C20.1281 21.5479 20.1076 21.3288 20.0423 21.1211C19.977 20.9134 19.8684 20.7219 19.7238 20.5591C19.5792 20.3964 19.4017 20.2662 19.2031 20.177C19.0045 20.0878 18.7892 20.0417 18.5715 20.0417H10.5286L17.5872 8.56227L16.7163 15.2167C16.6879 15.4342 16.7061 15.6552 16.7699 15.8651C16.8337 16.0749 16.9416 16.2688 17.0862 16.4336C17.2309 16.5985 17.4091 16.7306 17.6089 16.8211C17.8087 16.9116 18.0255 16.9584 18.2449 16.9584H26.4637L19.2971 28.6236Z" fill="#FD715B"/>
</svg>
