<svg width="23" height="23" viewBox="0 0 23 23" fill="none" xmlns="http://www.w3.org/2000/svg">
<path d="M22.9415 6.36553C22.8876 5.21511 22.6899 4.42421 22.4069 3.73889C22.1148 3.01143 21.6653 2.36014 21.0766 1.81872C20.5013 1.26888 19.8047 0.841621 19.0408 0.570994C18.3084 0.304497 17.4725 0.118461 16.2501 0.0677395C15.0187 0.0127218 14.6277 0 11.5045 0C8.38119 0 7.99026 0.0127218 6.76338 0.0634439C5.54106 0.114166 4.70073 0.300366 3.97275 0.566698C3.19964 0.841621 2.50765 1.26458 1.93239 1.81872C1.34818 2.36014 0.894398 3.01573 0.606681 3.73475C0.323528 4.42421 0.125865 5.21081 0.0719732 6.36123C0.0135169 7.52024 0 7.88817 0 10.8277C0 13.7673 0.0135169 14.1353 0.067409 15.29C0.121301 16.4404 0.319139 17.2313 0.602292 17.9166C0.894398 18.6441 1.34818 19.2954 1.93239 19.8368C2.50765 20.3867 3.20422 20.8139 3.96818 21.0845C4.70073 21.351 5.53649 21.5371 6.75898 21.5878C7.98569 21.6387 8.3768 21.6513 11.5001 21.6513C14.6234 21.6513 15.0143 21.6387 16.2412 21.5878C17.4635 21.5371 18.3038 21.351 19.0318 21.0845C20.5778 20.522 21.8001 19.3715 22.3978 17.9166C22.6809 17.2271 22.8787 16.4404 22.9326 15.29C22.9865 14.1353 23 13.7673 23 10.8277C23 7.88817 22.9954 7.52024 22.9415 6.36553ZM20.8699 15.2053C20.8205 16.2628 20.6317 16.8337 20.4745 17.2144C20.0879 18.1577 19.2925 18.9063 18.2903 19.2701C17.8858 19.4181 17.2747 19.5957 16.1556 19.6421C14.9424 19.693 14.5784 19.7056 11.509 19.7056C8.43965 19.7056 8.07117 19.693 6.86221 19.6421C5.73872 19.5957 5.13203 19.4181 4.72759 19.2701C4.22887 19.0966 3.7749 18.8217 3.40644 18.4621C3.02446 18.111 2.73234 17.6881 2.54803 17.2187C2.39073 16.838 2.20203 16.2628 2.1527 15.2096C2.09863 14.0676 2.08529 13.725 2.08529 10.8362C2.08529 7.94733 2.09863 7.60054 2.1527 6.46284C2.20203 5.40545 2.39073 4.83445 2.54803 4.45379C2.73234 3.98424 3.02446 3.55715 3.411 3.21019C3.78386 2.85067 4.23325 2.57576 4.73215 2.40244C5.1366 2.25441 5.74784 2.07679 6.86676 2.0302C8.08013 1.97947 8.44421 1.96676 11.5134 1.96676C14.5873 1.96676 14.9513 1.97947 16.1602 2.0302C17.2838 2.07679 17.8904 2.25441 18.2949 2.40244C18.7936 2.57576 19.2475 2.85067 19.616 3.21019C19.9981 3.56128 20.2902 3.98424 20.4745 4.45379C20.6317 4.83445 20.8205 5.40957 20.8699 6.46284C20.9238 7.60483 20.9373 7.94733 20.9373 10.8362C20.9373 13.725 20.9238 14.0634 20.8699 15.2053Z" fill="url(#paint0_linear)"/>
<path d="M11.5045 5.26575C8.24201 5.26575 5.59497 7.7569 5.59497 10.8276C5.59497 13.8983 8.24201 16.3895 11.5045 16.3895C14.7672 16.3895 17.414 13.8983 17.414 10.8276C17.414 7.7569 14.7672 5.26575 11.5045 5.26575ZM11.5045 14.4356C9.38796 14.4356 7.67114 12.8199 7.67114 10.8276C7.67114 8.83546 9.38796 7.21979 11.5045 7.21979C13.6212 7.21979 15.3378 8.83546 15.3378 10.8276C15.3378 12.8199 13.6212 14.4356 11.5045 14.4356Z" fill="url(#paint1_linear)"/>
<path d="M19.0275 5.046C19.0275 5.76305 18.4096 6.34446 17.6476 6.34446C16.8857 6.34446 16.268 5.76305 16.268 5.046C16.268 4.3288 16.8857 3.74756 17.6476 3.74756C18.4096 3.74756 19.0275 4.3288 19.0275 5.046Z" fill="url(#paint2_linear)"/>
<defs>
<linearGradient id="paint0_linear" x1="11.5" y1="0" x2="11.5" y2="21.6513" gradientUnits="userSpaceOnUse">
<stop stop-color="#6933BA"/>
<stop offset="0.5" stop-color="#EA0C8D"/>
<stop offset="1" stop-color="#D28C4D"/>
</linearGradient>
<linearGradient id="paint1_linear" x1="11.5045" y1="5.26575" x2="11.5045" y2="16.3895" gradientUnits="userSpaceOnUse">
<stop stop-color="#6933BA"/>
<stop offset="0.5" stop-color="#EA0C8D"/>
<stop offset="1" stop-color="#D28C4D"/>
</linearGradient>
<linearGradient id="paint2_linear" x1="17.6477" y1="3.74756" x2="17.6477" y2="6.34446" gradientUnits="userSpaceOnUse">
<stop stop-color="#6933BA"/>
<stop offset="0.5" stop-color="#EA0C8D"/>
<stop offset="1" stop-color="#D28C4D"/>
</linearGradient>
</defs>
</svg>
