<svg width="208" height="136" viewBox="0 0 208 136" fill="none" xmlns="http://www.w3.org/2000/svg">
<g filter="url(#filter0_d)">
<path d="M153.43 75.4546C151.122 75.9693 149.016 76.6264 146.99 77.4382C145.508 78.031 144.042 78.7293 142.441 79.2369C141.799 79.4336 141.147 79.5851 140.43 79.7155C137.698 80.2139 135.494 78.427 136.148 75.6946C136.369 74.7634 136.761 73.9011 137.193 73.1575C137.35 72.8959 137.502 72.6283 137.654 72.368C138.045 72.4959 138.435 72.6218 138.826 72.7496C139.439 72.9333 140.088 72.9949 140.765 73.107C141.829 73.2828 143.13 73.1182 144.047 72.9398C146.506 72.4546 148.612 71.8185 150.457 70.7411C156.59 67.1621 160.137 62.0014 162.45 54.6119C163.001 52.8362 163.301 50.9359 163.69 48.987C163.957 47.6637 163.889 46.3182 164.121 44.9169C164.292 43.9005 164.088 42.7437 164.266 41.6637V39.9674C164.255 39.5175 164.25 39.0716 164.237 38.6237C164.163 37.7864 164.086 36.9503 164.002 36.1129C163.833 35.1516 163.818 34.2546 163.598 33.3614C162.015 26.9759 160.084 21.7575 154.361 19.53C153.119 19.0441 151.764 18.8447 150.393 18.8447C146.961 18.8447 143.421 20.111 141.22 21.3962C140.239 21.9687 139.293 22.4808 138.398 23.1201C133.689 26.4808 130.511 31.4998 128.584 37.6421C127.814 40.1064 127.543 42.7562 127.056 45.5883C126.76 47.2644 126.788 49.0972 126.788 50.9516C126.802 51.6841 126.805 52.4159 126.815 53.1542C126.82 53.587 126.83 54.027 126.836 54.4677C126.918 55.4814 126.994 56.4913 127.077 57.5064L127.557 60.4513C128.211 63.0703 129.073 65.2028 130.474 67.0342C131.203 67.9792 132.035 68.7733 133.013 69.471C133.251 69.6447 133.479 69.8919 133.776 69.9995C133.79 70.0224 133.807 70.0408 133.826 70.0703C133.088 70.8506 132.511 71.8119 131.886 72.7018C129.652 75.8755 127.852 79.2526 126.646 83.4959C126.11 85.3805 125.715 88.328 126.265 90.509C126.6 91.8474 127.203 92.8519 127.939 93.7831C128.19 94.1083 129.002 94.6893 129.11 95.0303C128.688 95.2316 128.071 96.0624 127.769 96.4441C126.929 97.5103 126.15 98.591 125.762 100.126C124.964 103.281 126.09 106.343 127.626 107.885C127.873 108.13 128.147 108.455 128.488 108.599C128.504 108.62 128.518 108.647 128.537 108.67C128.049 109.19 127.039 109.622 126.406 110.011C124.662 111.079 122.827 112.068 120.88 112.931C118.499 113.981 116.022 115.018 113.39 115.851C111.477 116.45 109.487 116.876 107.455 117.386C105.769 117.8 103.972 117.903 102.19 118.219C101.615 118.267 101.039 118.315 100.466 118.363C99.5167 118.427 98.5685 118.491 97.619 118.555H96.8754C96.0295 118.691 94.4957 118.66 93.6695 118.53C92.6715 118.473 91.6741 118.416 90.6774 118.363C88.5836 118.013 86.5311 117.933 84.6 117.452C80.7259 116.494 77.2446 115.414 73.9482 113.956C72.7554 113.354 71.5574 112.748 70.3607 112.144C69.8413 111.838 69.3515 111.407 68.6859 111.279C67.9102 111.135 66.499 111.135 65.6938 111.254C65.0951 111.279 64.4984 111.304 63.901 111.325C62.4688 111.407 61.0426 111.485 59.6151 111.567C57.5889 111.734 55.5652 111.903 53.5377 112.068C60.3561 110.268 67.1751 108.466 73.9967 106.659V98.7877C72.7554 99.1077 71.5095 99.4257 70.2643 99.7464V40.467C64.0026 42.1044 57.739 43.7372 51.4793 45.3746C51.4715 47.8047 51.4623 50.2414 51.4544 52.6736C52.6898 52.3536 53.9279 52.0323 55.1633 51.7123V100.584C54.4577 100.051 53.5069 98.8769 52.9384 98.1647C51.6957 96.6159 50.2997 95.1923 49.0872 93.5956C47.7692 91.8539 46.4328 90.1103 45.1613 88.3077C41.9161 83.69 39.2341 78.5142 36.8564 73.0611C35.8085 70.6611 34.9252 68.1733 33.9364 65.6454C33.7974 65.2854 32.9003 63.0119 32.96 62.7451C37.6708 52.1529 42.3849 41.5588 47.0984 30.9654C48.6138 30.568 50.1305 30.1693 51.6466 29.7706H51.6944V21.7772C46.0807 23.2369 40.463 24.6978 34.8452 26.1582V34.1483C36.497 33.7247 38.1495 33.3051 39.7993 32.8808C34.4885 44.6926 29.1751 56.511 23.8643 68.3293C23.8459 68.3313 23.8275 68.3378 23.8151 68.3496C23.8203 57.907 23.8275 47.4624 23.84 37.0211C25.1856 36.6788 26.5364 36.3359 27.8846 35.9916C27.8911 33.3175 27.8997 30.646 27.9082 27.9759C19.9377 30.0533 11.9698 32.1392 4 34.2237V42.2133C5.35672 41.8618 6.71148 41.511 8.06885 41.1608V117.121C6.71934 117.462 5.37049 117.805 4.02295 118.148L4 125.665C12.0315 123.527 20.0682 121.386 28.097 119.249V111.903C26.6787 112.26 25.2577 112.615 23.84 112.977C23.8275 101.707 23.8203 90.4355 23.8151 79.1641H23.84C25.1475 81.9418 26.4544 84.7149 27.7633 87.4926C28.3784 88.8887 28.9075 90.2913 29.5115 91.6572C30.5711 94.0506 31.9423 96.2906 33.2918 98.4283C38.3738 106.487 45.8079 112.885 54.0387 117.816C55.8898 118.919 57.8761 120.02 59.9036 120.928C62.0931 121.894 64.3449 122.756 66.6511 123.656C68.3423 124.31 70.1102 124.69 71.9167 125.232C74.3888 125.967 77.0721 126.346 79.7882 126.884C80.7928 127.01 81.7993 127.138 82.8039 127.266C84.0164 127.36 85.2295 127.454 86.4413 127.552C86.7771 127.559 87.1128 127.571 87.4466 127.582C88.0302 127.594 88.6092 127.61 89.1948 127.63H91.1075C91.6977 127.617 92.2898 127.61 92.8813 127.6C93.9889 127.523 95.0984 127.441 96.2059 127.36C97.842 127.097 99.4026 127.106 100.944 126.786C103.371 126.289 105.749 125.902 107.98 125.208C115.354 122.919 121.243 119.928 126.717 115.798C127.804 114.983 128.801 114.089 129.85 113.242C130.243 112.867 130.635 112.491 131.026 112.116C131.662 111.485 132.302 110.858 132.941 110.226C133.886 110.285 135.079 110.551 136.167 110.371C137.349 110.176 138.515 110.236 139.614 110.011C142.032 109.521 144.281 108.97 146.439 108.288C154.139 105.862 160.231 102.11 163.98 95.7234C166.216 91.9208 167.383 84.85 165.248 80.0034C163.584 76.2277 158.992 74.2146 153.43 75.4546ZM142.032 37.6906C142.032 33.7674 142.041 30.0146 143.755 27.831C144.215 27.2506 145.042 26.8375 145.865 26.6355C146.111 26.6054 146.359 26.5693 146.605 26.5398C150.218 26.5903 149.477 32.0362 149.477 35.7287C149.471 43.1719 149.461 50.6152 149.453 58.0578C149.453 61.5555 149.321 63.4474 147.23 64.9018C146.751 65.2369 145.945 65.7418 145.073 65.7418C144.963 65.7418 144.852 65.7287 144.739 65.7155C143.904 65.5851 143.325 65.3083 142.945 64.7339C142.203 63.6231 142.382 62.0198 142.13 60.3772C142.123 59.7411 142.115 59.1018 142.104 58.4651C142.081 57.1719 142.056 55.8795 142.032 54.5877V37.6906ZM157.058 95.2703C156.569 96.4119 155.538 97.2703 154.548 97.9247C151.182 100.17 146.667 101.229 142.081 102.234C141.087 102.451 140.043 102.394 138.969 102.567C138.268 102.682 137.357 102.577 136.765 102.472C134.874 102.14 133.434 101.721 132.87 100.08C132.729 99.6821 132.66 99.0047 132.797 98.5241C132.902 98.1464 133.087 97.81 133.25 97.4946C133.468 97.0736 133.717 96.5267 134.064 96.2316C134.177 96.1306 134.622 96.1378 135.028 96.1424C135.127 96.1444 135.223 96.147 135.316 96.147C135.451 96.147 135.568 96.1424 135.648 96.1306C136.92 95.9247 138.095 95.8493 139.234 95.5313C142.62 94.5975 145.773 93.6526 149.094 92.6664C150.222 92.326 151.393 92.1451 152.593 91.8933C153.09 91.8401 153.593 91.7857 154.095 91.728C155.945 91.7077 157.038 91.9595 157.325 93.5293C157.443 94.1516 157.25 94.8336 157.058 95.2703Z" fill="#D7B154"/>
<path d="M57.9653 38.7682C59.9856 39.3767 62.2833 38.7747 63.7797 38.1184C67.3987 36.5347 70.1239 32.9282 71.1751 28.7649C72.6839 22.7761 69.6053 17.4908 63.9082 17.4908H63.9056H63.8026C63.3974 17.5498 62.9882 17.6043 62.5843 17.6613C61.8275 17.8482 61.1161 18.0882 60.4525 18.378C57.3521 19.7347 55.0315 22.4672 53.7049 25.6088C53.3456 26.4508 53.1016 27.3793 52.8898 28.359C51.7928 33.4495 54.3659 37.6836 57.9653 38.7682Z" fill="#D7B154"/>
<path d="M77.7308 97.7349C77.7138 100.366 77.7 103.002 77.6862 105.631C85.197 103.549 92.7118 101.467 100.229 99.3874V91.8727C98.9885 92.1972 97.7518 92.5271 96.519 92.8517V53.2228C96.519 48.7487 96.8521 45.2359 98.9813 42.8851C99.4961 42.3153 100.788 41.3081 102.02 41.5245C103.387 41.7579 103.454 43.2346 103.697 44.6064C103.865 45.5448 103.755 46.6399 103.912 47.6464V48.8195C103.92 50.8602 103.929 52.9015 103.934 54.9481V98.213C110.189 96.5769 116.443 94.9435 122.699 93.3048H122.745V86.0077C121.518 86.3277 120.29 86.6464 119.058 86.9664H119.036V47.5048C119.036 39.8759 119.28 33.3861 114.514 30.3913C113.257 29.6038 111.766 29.0517 109.716 29.0517H109.535C109.295 29.0674 109.059 29.0825 108.819 29.1015C108.387 29.1704 107.956 29.2445 107.526 29.3166C106.108 29.67 104.771 30.1336 103.648 30.7986C101.663 31.9756 99.917 33.6208 98.5288 35.392C97.8567 36.2464 97.1879 37.1022 96.519 37.954V33.5763C90.2384 35.2117 83.9597 36.8471 77.6862 38.4825V45.7769C78.9262 45.4622 80.1721 45.1435 81.4174 44.8228V96.7782C80.1872 97.0989 78.9577 97.4143 77.7308 97.7349Z" fill="#D7B154"/>
<path d="M172.81 6.58229C172.636 5.51803 172.576 4.51016 172.235 3.61115C171.389 1.40787 169.688 0 166.631 0H166.541C166.15 0.0472131 165.756 0.095082 165.365 0.144262C164.433 0.363279 163.547 0.64459 162.806 1.07672C160.866 2.2118 159.408 3.84066 158.69 6.19803C158.498 6.83279 158.48 7.45311 158.351 8.18492C158.185 9.20656 158.347 10.4754 158.594 11.2951C158.843 12.12 159.2 12.8636 159.672 13.4708C160.193 14.1574 160.983 14.6944 161.992 14.8852C162.402 14.9652 162.827 14.8892 163.228 14.8177C163.929 14.6944 164.548 14.5646 164.842 15.2433C165.097 15.8367 164.928 16.7954 164.722 17.3023C164.223 18.5279 163.253 19.4033 162.495 20.3915C162.152 20.8197 161.809 21.2498 161.471 21.682C161.523 21.9784 161.755 22.198 161.901 22.4223C162.335 23.158 162.777 23.8905 163.212 24.6223C163.448 24.5987 163.726 24.3148 163.929 24.1679C164.892 23.4925 165.693 22.7121 166.585 21.9921C167.351 21.379 168.015 20.5908 168.622 19.8125C170.575 17.3082 172.022 14.7298 172.762 10.937C173.006 9.67148 173.02 7.88328 172.81 6.58229Z" fill="#D7B154"/>
<path d="M202.696 49.7736C202.146 47.6339 201.387 45.7401 200.355 44.0824C198.16 40.569 195.064 37.9178 191.713 35.5611C187.589 32.6575 183.204 30.5191 181.782 24.8883C180.912 21.4496 182.816 17.9467 184.678 16.5827C185.466 16.0064 186.917 15.4123 188.196 15.9631C191.426 17.3513 191.66 23.6634 191.618 28.4778C194.665 27.6896 197.712 26.8955 200.763 26.1073C200.765 21.1008 200.776 16.0896 200.785 11.0818V7.51586C200.785 7.21225 200.896 6.43127 200.735 6.2457C198.653 6.78799 196.57 7.3316 194.49 7.87455C194.115 8.61619 193.743 9.35783 193.362 10.0982C192.628 9.82799 191.882 9.55455 191.143 9.28701C190.269 9.01357 189.383 8.8798 188.39 8.70996C185.943 8.29947 182.852 9.56242 181.376 10.3132C175.819 13.1414 172.665 18.228 170.729 24.6975C169.255 29.6077 169.275 37.6654 171.566 41.6168C174.185 46.1467 177.93 49.2962 182.043 52.3119C184.809 54.3382 188.87 57.0372 190.179 60.3768C190.496 61.1683 190.444 61.9762 190.612 62.988C190.715 63.6024 190.622 64.3893 190.516 64.9257C190.044 67.4109 189.044 68.91 187.097 69.9034C186.058 70.4293 184.273 70.8549 182.954 70.2857C181.093 69.4798 180.527 67.2746 180.082 65.0411C179.994 64.2064 179.905 63.3696 179.818 62.5316C179.772 61.5919 179.722 60.647 179.677 59.7086C179.653 58.75 179.626 57.7932 179.605 56.8372C176.736 57.5827 173.864 58.3368 170.99 59.0883C170.973 65.908 170.957 72.7296 170.942 79.5526V80.6004C173.176 80.0175 175.409 79.4339 177.642 78.8523C177.882 77.9211 178.121 76.9998 178.361 76.0791L179.413 76.6031C180.093 76.889 180.768 77.1775 181.448 77.4641C183.468 78.2437 186.456 78.0424 188.484 77.4175C195.772 75.1664 200.14 69.0339 202.366 61.67C203.337 58.4457 203.613 53.327 202.696 49.7736Z" fill="#D7B154"/>
</g>
<defs>
<filter id="filter0_d" x="0" y="0" width="208" height="136" filterUnits="userSpaceOnUse" color-interpolation-filters="sRGB">
<feFlood flood-opacity="0" result="BackgroundImageFix"/>
<feColorMatrix in="SourceAlpha" type="matrix" values="0 0 0 0 0 0 0 0 0 0 0 0 0 0 0 0 0 0 127 0"/>
<feOffset dy="4"/>
<feGaussianBlur stdDeviation="2"/>
<feColorMatrix type="matrix" values="0 0 0 0 0 0 0 0 0 0 0 0 0 0 0 0 0 0 0.25 0"/>
<feBlend mode="normal" in2="BackgroundImageFix" result="effect1_dropShadow"/>
<feBlend mode="normal" in="SourceGraphic" in2="effect1_dropShadow" result="shape"/>
</filter>
</defs>
</svg>
