<svg width="178" height="53" viewBox="0 0 178 53" fill="none" xmlns="http://www.w3.org/2000/svg">
<path d="M31 0L21.4145 29.8581L0 53L26.972 33.0275L31 0Z" fill="#6100FF"/>
<path d="M62.2534 33.6109L64.0095 31.4596C64.9002 32.1935 66.0964 32.5732 67.1144 32.5732C68.1324 32.5732 68.5396 32.2442 68.5396 31.6873C68.5396 31.0799 67.9034 30.9028 66.8345 30.4725L65.2566 29.8144C63.9077 29.2829 62.7115 28.144 62.7115 26.3217C62.7115 24.1704 64.6457 22.4241 67.4198 22.4241C68.9214 22.4241 70.4739 22.9556 71.6191 24.0186L69.8631 26.1699C68.9977 25.5878 68.1579 25.284 67.4198 25.284C66.6054 25.284 66.0964 25.5625 66.0964 26.1446C66.0964 26.752 66.809 26.9545 67.9543 27.41L69.4813 28.0175C71.0592 28.6249 71.95 29.7132 71.95 31.4596C71.95 33.5856 70.1685 35.4838 67.0126 35.4838C65.3584 35.4331 63.6023 34.9016 62.2534 33.6109Z" fill="#6100FF"/>
<path d="M75.9966 25.4359H72.6626V22.6519H82.6646V25.4359H79.3306V35.2054H75.9966V25.4359Z" fill="#6100FF"/>
<path d="M85.9984 22.6519H90.045L93.888 35.2054H90.3504L89.7396 32.5479H86.2021L85.5912 35.2054H82.1809L85.9984 22.6519ZM86.8129 29.9663H89.1288L88.9252 29.1058C88.6198 27.9162 88.3144 26.3723 87.9836 25.1322H87.9072C87.6273 26.3977 87.3219 27.9162 87.0165 29.1058L86.8129 29.9663Z" fill="#6100FF"/>
<path d="M95.0842 22.6519H99.8689C102.592 22.6519 104.908 23.5883 104.908 26.7014C104.908 28.4984 104.094 29.6626 102.872 30.3206L105.621 35.1801H101.905L99.7416 30.9787H98.4691V35.1801H95.1351V22.6519H95.0842ZM99.6398 28.3718C100.963 28.3718 101.65 27.7897 101.65 26.7014C101.65 25.6131 100.963 25.284 99.6398 25.284H98.4437V28.3718H99.6398V28.3718Z" fill="#6100FF"/>
<path d="M107.784 23.1074C107.809 24.2716 107.249 25.208 106.028 25.8155L105.57 24.9549C106.308 24.6006 106.664 24.1197 106.664 23.4364C106.639 23.4617 106.588 23.4617 106.537 23.4617C105.977 23.487 105.519 23.1074 105.493 22.5252C105.468 21.8672 105.875 21.4369 106.486 21.4116C107.3 21.4116 107.758 22.019 107.784 23.1074Z" fill="#6100FF"/>
<path d="M107.58 33.6109L109.336 31.4596C110.227 32.1935 111.423 32.5732 112.441 32.5732C113.459 32.5732 113.867 32.2442 113.867 31.6873C113.867 31.0799 113.23 30.9028 112.161 30.4725L110.583 29.8144C109.235 29.2829 108.038 28.144 108.038 26.3217C108.038 24.1704 109.973 22.4241 112.747 22.4241C114.248 22.4241 115.801 22.9556 116.946 24.0186L115.19 26.1699C114.325 25.5878 113.485 25.284 112.747 25.284C111.932 25.284 111.423 25.5625 111.423 26.1446C111.423 26.752 112.136 26.9545 113.281 27.41L114.808 28.0175C116.386 28.6249 117.277 29.7132 117.277 31.4596C117.277 33.5856 115.495 35.4838 112.34 35.4838C110.685 35.4331 108.929 34.9016 107.58 33.6109Z" fill="#6100FF"/>
<path d="M123.181 22.6519H126.744L128.653 27.7897C128.882 28.473 129.086 29.2576 129.315 29.9916H129.391C129.62 29.2576 129.824 28.4983 130.053 27.7897L131.885 22.6519H135.448V35.2054H132.42V31.5102C132.42 30.2447 132.7 27.9162 132.853 26.6508H132.776L131.733 30.0422L130.18 34.193H128.399L126.846 30.0422L125.828 26.6508H125.752C125.905 27.9162 126.185 30.2447 126.185 31.5102V35.2054H123.207V22.6519H123.181Z" fill="white"/>
<path d="M138.248 22.6519H146.392V25.4359H141.582V27.41H145.68V30.1941H141.582V32.4213H146.596V35.2054H138.248V22.6519Z" fill="white"/>
<path d="M149.039 22.6519H152.755C156.598 22.6519 159.244 24.4235 159.244 28.878C159.244 33.3071 156.598 35.2054 152.958 35.2054H149.039V22.6519V22.6519ZM152.551 32.5479C154.383 32.5479 155.809 31.8139 155.809 28.878C155.809 25.9421 154.383 25.3347 152.551 25.3347H152.347V32.5479H152.551Z" fill="white"/>
<path d="M164.818 22.6519H161.484V35.2054H164.818V22.6519Z" fill="white"/>
<path d="M169.857 22.6519H173.904L177.747 35.2054H174.209L173.598 32.5479H170.061L169.45 35.2054H166.04L169.857 22.6519ZM170.671 29.9663H172.987L172.784 29.1058C172.478 27.9162 172.173 26.3723 171.842 25.1322H171.766C171.486 26.3977 171.181 27.9162 170.875 29.1058L170.671 29.9663Z" fill="white"/>
<path d="M62 53L40.5855 29.8581L31 0L35.0535 33.0275L62 53Z" fill="white"/>
<path d="M31 40.2068L0 52.9999L31 46.4065L62 52.9999L31 40.2068Z" fill="#6100FF"/>
</svg>
