<svg version="1.1" xmlns="http://www.w3.org/2000/svg" xmlns:xlink="http://www.w3.org/1999/xlink" x="0px" y="0px" width="386.2px" height="88.5px" viewBox="0 0 386.2 88.5" style="enable-background:new 0 0 386.2 88.5;" xml:space="preserve">
<style type="text/css">
	.st0{fill:#FFFFFF;}
	.st1{fill:url(#SVGID_1_);}
	.st2{fill:url(#SVGID_2_);}
	.st3{fill:url(#SVGID_3_);}
	.st4{fill:url(#SVGID_4_);}
</style>
<defs>
</defs>
<g>
	<path class="st0" d="M123.1,53.7c0,3.3-1.1,5.8-3.3,7.4c-2.2,1.7-5.4,2.5-9.5,2.5c-4.4,0-8.3-1.2-11.8-3.7
		c-0.5-0.4-0.6-0.9-0.3-1.4l2.7-4.5c0.4-0.6,0.8-0.7,1.4-0.3c2.5,1.7,5.2,2.6,8.1,2.6c1.2,0,2.2-0.2,2.9-0.6c0.7-0.4,1.1-1,1.1-1.7
		c0-0.7-0.4-1.2-1.1-1.5c-0.7-0.3-1.7-0.6-3-0.9c-7.5-1.3-11.3-4.5-11.3-9.6c0-3.1,1.1-5.4,3.3-7c2.2-1.6,5.2-2.4,9-2.4
		c3.4,0,6.7,0.9,10.1,2.6c0.6,0.3,0.7,0.8,0.3,1.4l-2.6,4.4c-0.3,0.6-0.8,0.7-1.4,0.4c-2.1-1.1-4.3-1.6-6.6-1.6
		c-2.4,0-3.6,0.7-3.6,2.1c0,0.8,0.4,1.3,1.1,1.6c0.7,0.3,2,0.7,3.9,1C119.6,45.6,123.1,48.7,123.1,53.7z"></path>
	<path class="st0" d="M136.3,51.6c0,2.8,1.3,4.2,3.8,4.2c0.4,0,1,0,1.8-0.1c0.7-0.1,1.1,0.2,1.1,0.9v5.6c0,0.6-0.3,1-0.8,1.1
		c-1.1,0.2-2.3,0.3-3.6,0.3c-3.4,0-6.1-0.9-8.1-2.8c-2-1.8-3-4.5-3-8.1V27.2c0-0.6,0.3-1,1-1h5.9c0.6,0,1,0.3,1,0.9l0.7,6.8h5.1
		c0.7,0,1,0.3,1,1v5.5c0,0.6-0.3,1-1,1h-5.1V51.6z"></path>
	<path class="st0" d="M147.3,35.6c3.3-2.1,7.2-3.1,11.7-3.1c4,0,7.1,1.1,9.2,3.2c2.1,2.1,3.2,5.3,3.2,9.6v15.6
		c0,0.6-0.3,0.9-0.9,1.1c-3.6,1.1-7.5,1.6-11.7,1.6s-7.5-0.8-9.8-2.4c-2.4-1.6-3.5-4.1-3.5-7.3c0-2.9,1.1-5.1,3.2-6.6
		C151,45.7,154,45,158,45c1.3,0,2.9,0.1,4.8,0.3v-0.6c0-1.6-0.4-2.8-1.1-3.5c-0.7-0.8-1.9-1.1-3.7-1.1c-2.8,0-5.2,0.5-7.1,1.6
		c-0.6,0.3-1.1,0.2-1.4-0.3l-2.3-4.4C146.9,36.3,147,35.9,147.3,35.6z M154.4,53.6c0,2,1.5,3,4.5,3c1.2,0,2.5-0.2,3.9-0.5v-5
		c-1.1-0.2-2.4-0.3-3.9-0.3C155.9,50.8,154.4,51.7,154.4,53.6z"></path>
	<path class="st0" d="M185.1,62.9h-6.7c-0.7,0-1-0.3-1-1V36c0-0.5,0.2-0.9,0.7-1.2c3.2-1.6,6.7-2.3,10.5-2.3c1.4,0,3.2,0.2,5.5,0.6
		c0.6,0.1,0.9,0.5,0.9,1.1v5.2c0,0.7-0.4,1-1.1,0.9c-1-0.2-2.2-0.2-3.5-0.2c-1.7,0-3.1,0.2-4.3,0.7v21
		C186.1,62.5,185.7,62.9,185.1,62.9z"></path>
	<path class="st0" d="M222.2,53.7c0,3.3-1.1,5.8-3.3,7.4c-2.2,1.7-5.4,2.5-9.5,2.5c-4.4,0-8.3-1.2-11.8-3.7
		c-0.5-0.4-0.6-0.9-0.3-1.4l2.7-4.5c0.4-0.6,0.8-0.7,1.4-0.3c2.5,1.7,5.2,2.6,8.1,2.6c1.2,0,2.2-0.2,2.9-0.6c0.7-0.4,1.1-1,1.1-1.7
		c0-0.7-0.4-1.2-1.1-1.5c-0.7-0.3-1.7-0.6-3-0.9c-7.5-1.3-11.3-4.5-11.3-9.6c0-3.1,1.1-5.4,3.3-7s5.2-2.4,9-2.4
		c3.4,0,6.7,0.9,10.1,2.6c0.6,0.3,0.7,0.8,0.3,1.4l-2.6,4.4c-0.3,0.6-0.8,0.7-1.4,0.4c-2.1-1.1-4.3-1.6-6.6-1.6
		c-2.4,0-3.6,0.7-3.6,2.1c0,0.8,0.4,1.3,1.1,1.6c0.7,0.3,2,0.7,3.9,1C218.7,45.6,222.2,48.7,222.2,53.7z"></path>
	<path class="st0" d="M258.2,35c3-1.6,5.8-2.4,8.5-2.4c3.8,0,6.9,1.1,9.2,3.3c2.3,2.2,3.5,5.2,3.5,9.2v16.8c0,0.7-0.3,1-1,1h-6.6
		c-0.7,0-1-0.3-1-1V44.7c0-3-1.5-4.4-4.4-4.4c-1.3,0-2.5,0.3-3.7,0.9c0.4,1.1,0.6,2.3,0.6,3.7v16.9c0,0.7-0.3,1-1,1h-6.6
		c-0.7,0-1-0.3-1-1V44.7c0-3-1.4-4.5-4.2-4.5c-1.1,0-2.3,0.2-3.4,0.5v21.1c0,0.7-0.3,1-1,1h-6.6c-0.7,0-1-0.3-1-1V36
		c0-0.6,0.3-1,0.8-1.3c3.6-1.5,7.3-2.2,11.1-2.2C253.3,32.6,255.9,33.4,258.2,35z"></path>
	<path class="st0" d="M310.4,44.6v5.5c0,0.6-0.3,1-1,1h-16.1V52c0,1.4,0.4,2.5,1.3,3.3s2.1,1.1,3.6,1.1c2.5,0,4.9-0.7,7.2-2
		c0.5-0.4,0.9-0.3,1.3,0.2l3,3.9c0.4,0.6,0.3,1-0.2,1.4c-3.3,2.5-7.1,3.8-11.6,3.8c-3.9,0-7.1-1-9.6-3.1s-3.8-5-3.8-8.8v-7.2
		c0-4,1.2-7,3.7-9.1c2.5-2,5.6-3,9.5-3c3.8,0,6.8,1,9.2,3C309.2,37.5,310.4,40.6,310.4,44.6z M302,44.2c0-1.5-0.4-2.6-1.2-3.4
		c-0.8-0.8-1.9-1.1-3.2-1.1c-2.9,0-4.4,1.5-4.4,4.5v1.2h8.8V44.2z"></path>
	<path class="st0" d="M332.1,33.5V23.2c0-0.7,0.3-1,1-1h6.7c0.7,0,1,0.3,1,1v37.1c0,0.6-0.3,1-0.8,1.2c-3.8,1.4-7.8,2-12,2
		c-4.1,0-7.3-1.1-9.8-3.4c-2.5-2.3-3.7-5.4-3.7-9.5v-5.6c0-3.8,1.1-6.9,3.4-9.2c2.3-2.3,5.2-3.4,8.9-3.4
		C328.6,32.5,330.3,32.8,332.1,33.5z M323.4,50.9c0,3.4,1.6,5.1,4.8,5.1c1.5,0,2.8-0.2,3.9-0.6V41c-1.2-0.6-2.5-1-4-1
		c-3.1,0-4.7,1.6-4.7,4.9V50.9z"></path>
	<path class="st0" d="M356.3,24.4c0,1.4-0.4,2.5-1.3,3.4c-0.9,0.9-2,1.4-3.4,1.4c-1.4,0-2.6-0.5-3.5-1.4c-0.9-0.9-1.4-2-1.4-3.4
		c0-1.4,0.5-2.5,1.4-3.4c0.9-0.9,2.1-1.3,3.5-1.3c1.4,0,2.5,0.4,3.4,1.3S356.3,23,356.3,24.4z M354.9,62.9h-6.7c-0.7,0-1-0.3-1-1
		V34.3c0-0.6,0.3-1,1-1h6.7c0.6,0,1,0.3,1,1v27.6C355.8,62.5,355.5,62.9,354.9,62.9z"></path>
	<path class="st0" d="M362,35.6c3.3-2.1,7.2-3.1,11.7-3.1c4,0,7.1,1.1,9.2,3.2c2.1,2.1,3.2,5.3,3.2,9.6v15.6c0,0.6-0.3,0.9-0.9,1.1
		c-3.6,1.1-7.5,1.6-11.7,1.6s-7.5-0.8-9.8-2.4c-2.4-1.6-3.5-4.1-3.5-7.3c0-2.9,1.1-5.1,3.2-6.6c2.2-1.5,5.2-2.2,9.2-2.2
		c1.3,0,2.9,0.1,4.8,0.3v-0.6c0-1.6-0.4-2.8-1.1-3.5c-0.7-0.8-1.9-1.1-3.7-1.1c-2.8,0-5.2,0.5-7.1,1.6c-0.6,0.3-1.1,0.2-1.4-0.3
		l-2.3-4.4C361.6,36.3,361.7,35.9,362,35.6z M369.1,53.6c0,2,1.5,3,4.5,3c1.2,0,2.5-0.2,3.9-0.5v-5c-1.1-0.2-2.4-0.3-3.9-0.3
		C370.6,50.8,369.1,51.7,369.1,53.6z"></path>
</g>
<linearGradient id="SVGID_1_" gradientUnits="userSpaceOnUse" x1="33.3516" y1="89.5243" x2="74.7282" y2="44.9485">
	<stop offset="0" style="stop-color:#3260AB"></stop>
	<stop offset="0.2836" style="stop-color:#3A5CA7"></stop>
	<stop offset="0.7147" style="stop-color:#4B519E"></stop>
	<stop offset="0.9876" style="stop-color:#544696"></stop>
</linearGradient>
<path class="st1" d="M99.6,88.4L51,77l-5.7-1.3L34.8,49.1L49.2,1.2c0.5-1.6,2.8-1.6,3.3,0L59,22.8l7.9,26.3l2.2,2.3l32.1,34.2
	C102.3,86.8,101.2,88.8,99.6,88.4z"></path>
<linearGradient id="SVGID_2_" gradientUnits="userSpaceOnUse" x1="8.1805" y1="80.3769" x2="79.0713" y2="36.5938">
	<stop offset="0" style="stop-color:#3260AB"></stop>
	<stop offset="0.1196" style="stop-color:#3065AE"></stop>
	<stop offset="0.302" style="stop-color:#2971B7"></stop>
	<stop offset="0.5245" style="stop-color:#1B86C5"></stop>
	<stop offset="0.7762" style="stop-color:#00A0D7"></stop>
	<stop offset="0.9876" style="stop-color:#00B8E5"></stop>
</linearGradient>
<path class="st2" d="M69.1,51.4v18.9c0,1.3-0.9,2.4-2.1,2.7l-16,4l-0.1,0l-26.5,6.2L2.1,88.4c-1.6,0.4-2.8-1.6-1.6-2.8l6-6.4
	l24.5-26l2-2.2l1.8-1.9L59,22.8l6-6.5c1.1-1.2,3.2-0.2,2.9,1.4l0.9,22.8L69.1,51.4z"></path>
</svg>