<svg width="376" height="402" viewBox="0 0 376 402" fill="none" xmlns="http://www.w3.org/2000/svg">
<path d="M175.363 176.974L175.408 176.945L175.437 176.9L290.357 3.01614L202.443 207.282L2.75074 286.599L175.363 176.974ZM200.976 300.806L2.94809 287.731L213.192 260.541L373.259 399.54L201.084 300.838L201.034 300.81L200.976 300.806ZM290.948 211.873L374.047 398.7L251.774 222.176L291.44 3.35452L290.927 211.771L290.927 211.824L290.948 211.873Z" stroke="white" stroke-opacity="0.65" stroke-width="0.5"/>
<circle cx="175" cy="178" r="2" fill="white"/>
<circle cx="202" cy="207" r="2" fill="white"/>
<circle cx="200" cy="302" r="2" fill="white"/>
<circle cx="213" cy="260" r="2" fill="white"/>
<circle cx="291" cy="211" r="2" fill="white"/>
<circle cx="252" cy="222" r="2" fill="white"/>
</svg>
