<svg width="122" height="78" viewBox="0 0 122 78" fill="none" xmlns="http://www.w3.org/2000/svg">
<path d="M91.152 45.9801C89.7444 46.2938 88.46 46.6942 87.2236 47.1889C86.3196 47.5501 85.4256 47.9757 84.4488 48.285C84.0576 48.4049 83.6596 48.4972 83.2224 48.5767C81.5556 48.8804 80.2116 47.7915 80.6104 46.1264C80.7448 45.559 80.9844 45.0335 81.248 44.5804C81.3436 44.4209 81.4364 44.2579 81.5292 44.0993C81.7672 44.1772 82.0052 44.2539 82.244 44.3318C82.618 44.4437 83.0136 44.4813 83.4264 44.5496C84.0756 44.6567 84.8696 44.5564 85.4284 44.4477C86.9284 44.152 88.2132 43.7644 89.3388 43.1079C93.0796 40.9269 95.2436 37.7822 96.6544 33.2792C96.9908 32.1971 97.1736 31.0391 97.4108 29.8515C97.5736 29.0451 97.532 28.2252 97.6736 27.3712C97.7784 26.7519 97.6536 26.047 97.7624 25.3889V24.3551C97.7556 24.081 97.7528 23.8093 97.7444 23.5364C97.6996 23.0261 97.6524 22.5166 97.6012 22.0063C97.498 21.4205 97.4888 20.8739 97.3548 20.3296C96.3892 16.4384 95.2112 13.2585 91.72 11.9011C90.9624 11.605 90.136 11.4835 89.2996 11.4835C87.206 11.4835 85.0468 12.2551 83.704 13.0383C83.1056 13.3872 82.5288 13.6992 81.9828 14.0888C79.1104 16.1367 77.1716 19.1952 75.9964 22.9382C75.5268 24.4398 75.3612 26.0546 75.064 27.7804C74.8836 28.8018 74.9004 29.9186 74.9004 31.0487C74.9092 31.495 74.9108 31.9409 74.9172 32.3909C74.92 32.6546 74.926 32.9227 74.93 33.1913C74.98 33.809 75.0264 34.4244 75.0768 35.043L75.3696 36.8375C75.7688 38.4335 76.2948 39.733 77.1492 40.849C77.5936 41.4248 78.1012 41.9087 78.698 42.3339C78.8428 42.4398 78.982 42.5904 79.1636 42.656C79.1716 42.6699 79.1824 42.6811 79.194 42.6991C78.7436 43.1746 78.392 43.7604 78.0104 44.3027C76.648 46.2367 75.5496 48.2946 74.814 50.8803C74.4872 52.0287 74.246 53.8249 74.5816 55.1539C74.786 55.9695 75.154 56.5817 75.6028 57.1491C75.7556 57.3473 76.2512 57.7013 76.3168 57.9091C76.0596 58.0318 75.6836 58.5381 75.4992 58.7706C74.9864 59.4204 74.5112 60.0789 74.2748 61.0143C73.788 62.9372 74.4752 64.8028 75.4116 65.7427C75.5624 65.8917 75.7296 66.0899 75.9376 66.1778C75.9476 66.1902 75.956 66.207 75.9676 66.221C75.6696 66.5375 75.054 66.8008 74.6676 67.0381C73.604 67.6891 72.4844 68.2917 71.2968 68.8171C69.8444 69.4573 68.3332 70.089 66.728 70.5965C65.5612 70.9617 64.3468 71.2211 63.1076 71.5323C62.0792 71.7845 60.9828 71.8472 59.8956 72.0398C59.5452 72.069 59.1936 72.0982 58.844 72.1273C58.2652 72.1665 57.6868 72.2057 57.1076 72.2444H56.654C56.138 72.3271 55.2024 72.3087 54.6984 72.2292C54.0896 72.1945 53.4812 72.1597 52.8732 72.1273C51.596 71.9143 50.344 71.8656 49.166 71.5723C46.8028 70.9885 44.6792 70.3304 42.6684 69.4421C41.9408 69.0753 41.21 68.7056 40.48 68.3376C40.1632 68.151 39.8644 67.8885 39.4584 67.8106C38.9852 67.7226 38.1244 67.7226 37.6332 67.7954C37.268 67.8106 36.904 67.8257 36.5396 67.8385C35.666 67.8885 34.796 67.936 33.9252 67.9864C32.6892 68.0879 31.4548 68.191 30.218 68.2917C34.3772 67.1944 38.5368 66.0967 42.698 64.9954V60.1988C41.9408 60.3938 41.1808 60.5876 40.4212 60.783V24.6596C36.6016 25.6574 32.7808 26.6524 28.9624 27.6501C28.9576 29.131 28.952 30.6159 28.9472 32.098C29.7008 31.903 30.456 31.7072 31.2096 31.5122V61.2932C30.7792 60.9684 30.1992 60.2531 29.8524 59.8191C29.0944 58.8753 28.2428 58.0078 27.5032 57.0348C26.6992 55.9735 25.884 54.911 25.1084 53.8125C23.1288 50.9986 21.4928 47.8446 20.0424 44.5216C19.4032 43.0591 18.8644 41.5431 18.2612 40.0027C18.1764 39.7833 17.6292 38.3979 17.6656 38.2353C20.5392 31.7807 23.4148 25.3249 26.29 18.8695C27.2144 18.6274 28.1396 18.3844 29.0644 18.1415H29.0936V13.2705C25.6692 14.16 22.2424 15.0503 18.8156 15.9401V20.8092C19.8232 20.551 20.8312 20.2953 21.8376 20.0367C18.598 27.2346 15.3568 34.4364 12.1172 41.6382C12.106 41.6394 12.0948 41.6434 12.0872 41.6506C12.0904 35.2871 12.0948 28.9224 12.1024 22.5598C12.9232 22.3512 13.7472 22.1422 14.5696 21.9324C14.5736 20.3029 14.5788 18.6749 14.584 17.0478C9.722 18.3137 4.8616 19.5848 0 20.8551V25.7237C0.8276 25.5095 1.654 25.2958 2.482 25.0824V71.3709C1.6588 71.5783 0.836 71.7873 0.014 71.9963L0 76.5772C4.8992 75.2745 9.8016 73.9694 14.6992 72.6672V68.191C13.834 68.4087 12.9672 68.6249 12.1024 68.8451C12.0948 61.9777 12.0904 55.1092 12.0872 48.2406H12.1024C12.9 49.9333 13.6972 51.6232 14.4956 53.3158C14.8708 54.1665 15.1936 55.0213 15.562 55.8536C16.2084 57.3121 17.0448 58.6771 17.868 59.9798C20.968 64.8908 25.5028 68.7892 30.5236 71.7941C31.6528 72.4662 32.8644 73.1371 34.1012 73.6905C35.4368 74.2791 36.8104 74.8046 38.2172 75.3528C39.2488 75.7516 40.3272 75.983 41.4292 76.3134C42.9372 76.761 44.574 76.9923 46.2308 77.32C46.8436 77.3967 47.4576 77.475 48.0704 77.553C48.81 77.6101 49.55 77.6672 50.2892 77.7272C50.494 77.7316 50.6988 77.7384 50.9024 77.7456C51.2584 77.7524 51.6116 77.7624 51.9688 77.7747H53.1356C53.4956 77.7663 53.8568 77.7624 54.2176 77.7564C54.8932 77.7092 55.57 77.6593 56.2456 77.6101C57.2436 77.4499 58.1956 77.4555 59.1356 77.2601C60.6164 76.9576 62.0668 76.7218 63.4276 76.2987C67.926 74.9037 71.5184 73.0812 74.8576 70.5645C75.5204 70.0678 76.1288 69.5228 76.7684 69.0069C77.008 68.7784 77.2476 68.5494 77.4856 68.3208C77.8736 67.936 78.2644 67.554 78.654 67.1692C79.2304 67.2052 79.958 67.367 80.622 67.2571C81.3428 67.1384 82.054 67.1748 82.7244 67.0381C84.1996 66.7397 85.5716 66.4036 86.8876 65.988C91.5848 64.5099 95.3012 62.2231 97.588 58.3315C98.9516 56.0143 99.6636 51.7055 98.3612 48.7521C97.346 46.4513 94.5452 45.2245 91.152 45.9801ZM84.1996 22.9677C84.1996 20.577 84.2052 18.2901 85.2504 16.9595C85.5312 16.6059 86.0356 16.3541 86.5376 16.2311C86.6876 16.2127 86.8388 16.1907 86.9888 16.1727C89.1928 16.2035 88.7408 19.5221 88.7408 21.7722C88.7372 26.3079 88.7312 30.8437 88.7264 35.379C88.7264 37.5104 88.6456 38.6632 87.37 39.5495C87.0784 39.7537 86.5864 40.0614 86.0544 40.0614C85.9876 40.0614 85.92 40.0534 85.8508 40.0454C85.3416 39.9659 84.988 39.7973 84.7564 39.4472C84.304 38.7703 84.4128 37.7933 84.2592 36.7924C84.2552 36.4048 84.25 36.0152 84.2432 35.6272C84.2296 34.8392 84.214 34.0516 84.1996 33.2644V22.9677ZM93.3656 58.0554C93.0672 58.751 92.4384 59.2741 91.8344 59.6729C89.7812 61.0411 87.0268 61.6864 84.2296 62.2986C83.6228 62.4309 82.9864 62.3961 82.3312 62.502C81.9032 62.5719 81.348 62.5076 80.9864 62.4437C79.8332 62.2415 78.9548 61.9861 78.6104 60.9864C78.5244 60.7438 78.4824 60.331 78.5664 60.0381C78.6304 59.808 78.7428 59.603 78.8428 59.4108C78.9752 59.1542 79.1272 58.821 79.3392 58.6412C79.408 58.5796 79.6792 58.584 79.9272 58.5868C79.9876 58.588 80.046 58.5896 80.1028 58.5896C80.1852 58.5896 80.2564 58.5868 80.3052 58.5796C81.0812 58.4542 81.798 58.4082 82.4928 58.2144C84.558 57.6454 86.4816 57.0696 88.5072 56.4686C89.1952 56.2612 89.91 56.1509 90.6416 55.9975C90.9448 55.9651 91.252 55.9319 91.558 55.8968C92.6864 55.8844 93.3532 56.0378 93.5284 56.9944C93.6004 57.3737 93.4828 57.7892 93.3656 58.0554Z" fill="white"/>
<path d="M32.9188 23.6243C34.1512 23.9952 35.5528 23.6283 36.4656 23.2284C38.6732 22.2633 40.3356 20.0656 40.9768 17.5286C41.8972 13.8791 40.0192 10.6584 36.544 10.6584H36.5424H36.4796C36.2324 10.6944 35.9828 10.7276 35.7364 10.7623C35.2748 10.8762 34.8408 11.0225 34.436 11.1991C32.5448 12.0258 31.1292 13.6909 30.32 15.6054C30.1008 16.1184 29.952 16.6843 29.8228 17.2813C29.1536 20.3833 30.7232 22.9634 32.9188 23.6243Z" fill="white"/>
<path d="M44.9758 59.5572C44.9654 61.1608 44.957 62.7672 44.9486 64.3691C49.5302 63.1 54.1142 61.8313 58.6994 60.5642V55.9849C57.943 56.1827 57.1886 56.3837 56.4366 56.5815V32.4327C56.4366 29.7063 56.6398 27.5657 57.9386 26.1331C58.2526 25.7859 59.0406 25.1721 59.7922 25.304C60.6258 25.4462 60.667 26.3461 60.815 27.182C60.9174 27.7539 60.8506 28.4212 60.9466 29.0345V29.7494C60.9514 30.9929 60.9566 32.2369 60.9598 33.484V59.8485C64.7754 58.8516 68.5902 57.8562 72.4062 56.8576H72.4342V52.411C71.6862 52.606 70.9366 52.8002 70.1854 52.9952H70.1722V28.9482C70.1722 24.2994 70.321 20.3447 67.4134 18.5197C66.647 18.0398 65.737 17.7034 64.4866 17.7034H64.3762C64.2298 17.713 64.0858 17.7222 63.9394 17.7337C63.6762 17.7757 63.413 17.8208 63.151 17.8648C62.2858 18.0802 61.4702 18.3627 60.7854 18.7679C59.5746 19.4851 58.5094 20.4877 57.6626 21.567C57.2526 22.0877 56.8446 22.6091 56.4366 23.1282V20.4605C52.6054 21.4571 48.7754 22.4537 44.9486 23.4503V27.8953C45.705 27.7035 46.465 27.5093 47.2246 27.3139V58.9742C46.4742 59.1696 45.7242 59.3618 44.9758 59.5572Z" fill="white"/>
<path d="M102.974 4.01109C102.868 3.36255 102.831 2.74838 102.623 2.20054C102.107 0.85792 101.069 0 99.2051 0H99.1499C98.9115 0.0287705 98.6715 0.0579406 98.4327 0.0879098C97.8643 0.221373 97.3235 0.392797 96.8719 0.656127C95.6883 1.34782 94.7991 2.3404 94.3611 3.77693C94.2439 4.16373 94.2327 4.54174 94.1543 4.98768C94.0527 5.61025 94.1515 6.38345 94.3023 6.88294C94.4543 7.38562 94.6723 7.83876 94.9599 8.20878C95.2779 8.62715 95.7595 8.95442 96.3751 9.0707C96.6251 9.11945 96.8847 9.07309 97.1291 9.02954C97.5567 8.95442 97.9343 8.8753 98.1135 9.28887C98.2691 9.6505 98.1659 10.2347 98.0403 10.5436C97.7363 11.2904 97.1443 11.8239 96.6823 12.4261C96.4727 12.687 96.2635 12.9491 96.0571 13.2124C96.0891 13.3931 96.2307 13.5269 96.3195 13.6636C96.5843 14.1119 96.8539 14.5583 97.1191 15.0042C97.2631 14.9898 97.4327 14.8168 97.5567 14.7273C98.1443 14.3157 98.6331 13.8402 99.1771 13.4015C99.6443 13.0278 100.049 12.5475 100.419 12.0732C101.611 10.5472 102.493 8.97599 102.945 6.66476C103.094 5.89356 103.102 4.80387 102.974 4.01109Z" fill="white"/>
<path d="M121.205 30.3308C120.869 29.0269 120.406 27.8729 119.777 26.8627C118.438 24.7217 116.549 23.1062 114.505 21.67C111.989 19.9007 109.315 18.5976 108.447 15.1663C107.916 13.0709 109.078 10.9363 110.214 10.1051C110.694 9.75387 111.579 9.39184 112.36 9.7275C114.33 10.5734 114.473 14.4199 114.447 17.3537C116.306 16.8734 118.164 16.3895 120.025 15.9092C120.027 12.8583 120.033 9.80462 120.039 6.75295V4.57998C120.039 4.39496 120.106 3.91905 120.008 3.80597C118.738 4.13643 117.468 4.46769 116.199 4.79855C115.97 5.25049 115.743 5.70242 115.511 6.15356C115.063 5.98893 114.608 5.8223 114.157 5.65927C113.624 5.49264 113.084 5.41112 112.478 5.30763C110.986 5.05749 109.1 5.8271 108.2 6.28463C104.81 8.00806 102.886 11.1077 101.705 15.05C100.806 18.0422 100.818 22.9523 102.215 25.3603C103.813 28.1206 106.098 30.0399 108.606 31.8776C110.294 33.1123 112.771 34.757 113.569 36.7921C113.762 37.2744 113.731 37.7667 113.833 38.3833C113.896 38.7577 113.839 39.2372 113.775 39.5641C113.487 41.0785 112.877 41.992 111.689 42.5974C111.056 42.9179 109.967 43.1772 109.162 42.8303C108.027 42.3392 107.682 40.9954 107.41 39.6344C107.356 39.1257 107.302 38.6159 107.249 38.1052C107.221 37.5326 107.191 36.9568 107.163 36.385C107.148 35.8008 107.132 35.2178 107.119 34.6352C105.369 35.0895 103.617 35.549 101.864 36.0069C101.854 40.1627 101.844 44.3196 101.835 48.4774V49.1159C103.197 48.7607 104.56 48.405 105.922 48.0506C106.068 47.4832 106.214 46.9217 106.36 46.3607L107.002 46.68C107.417 46.8542 107.829 47.03 108.243 47.2047C109.476 47.6798 111.298 47.5571 112.535 47.1763C116.981 45.8045 119.646 42.0675 121.003 37.5801C121.596 35.6153 121.764 32.4961 121.205 30.3308Z" fill="white"/>
</svg>
