<svg width="107" height="93" viewBox="0 0 107 93" fill="none" xmlns="http://www.w3.org/2000/svg">
<path d="M0 71.4028V91.237H9.60816V87.5811H3.67944V83.1658H8.71899V79.4733H3.67944V75.0573H9.53118V71.4028H0Z" fill="white"/>
<path d="M21.1816 71.4028V81.8111L17.0973 71.4028H13.1021V91.237H16.8143V80.8459L20.8875 91.237H24.8939L24.8827 91.2176V71.4028H21.1816Z" fill="white"/>
<path d="M27.951 71.4028V75.0573H31.7251V91.237H35.5349V75.0573H39.3061V71.4028H27.951Z" fill="white"/>
<path d="M42.3633 71.4028V91.237H46.0332V83.1658H47.1191L50.233 91.237H54.1551L50.9889 83.1105L53.4867 80.772V73.481L51.1543 71.4028H42.3633ZM46.0332 75.0394H49.8292V79.4733H46.0332V75.0394Z" fill="white"/>
<path d="M59.6044 71.4028L57.2123 73.481V89.1774L59.6044 91.237H66.5844L69.0041 89.1774V73.481L66.5844 71.4028H59.6044ZM60.9616 75.0601H65.2414V87.5804H60.9616V75.0601Z" fill="white"/>
<path d="M72.9347 71.4028V91.237H76.6985V84.5018H81.8485L84.2898 82.4042V73.499L81.8485 71.4028H72.9347ZM76.6985 75.0594H80.526V80.8466H76.6985V75.0594Z" fill="white"/>
<path d="M89.8726 71.4028L87.3469 73.481V91.237H91.2775V71.4028H89.8726Z" fill="white"/>
<path d="M97.6137 71.4028L95.2081 73.501V89.3481L97.5868 91.4274H100.38L101.755 93H106.072L104.659 91.3521L107 89.3292V73.5003L104.582 71.4028H97.6137ZM98.9581 75.0952H103.238V87.7358H98.9581V75.0952Z" fill="white"/>
<path fill-rule="evenodd" clip-rule="evenodd" d="M73.8082 13.1038L73.2724 12.782C70.2365 14.6065 55.2673 23.6046 53.4603 24.6903H53.1031C51.296 23.6046 36.3265 14.6065 33.2909 12.782L32.7551 13.1038V43.9718L32.9341 44.2939C34.0928 44.9904 40.5645 48.8801 42.4821 50.0332L43.0182 49.711V31.6112L42.4821 31.289C41.6368 31.7971 40.0013 32.7805 39.1557 33.2889L38.6199 32.9664V23.6794L39.1557 23.3572L43.0182 25.6793L46.6662 27.8714L47.4169 28.3231C47.4203 28.3248 52.1209 31.1504 53.1031 31.741L53.282 32.0628V49.2594L53.1031 49.5812C52.3249 50.049 49.2148 51.9187 47.953 52.6773V53.3213C49.2148 54.0795 52.3253 55.9496 53.1031 56.4171H53.4603C55.3558 55.2778 71.7344 45.4325 73.6296 44.2939L73.8082 43.9718V13.1038ZM59.8327 28.3166V27.6593C61.4108 26.6956 66.0146 23.8835 67.5928 22.9194L68.1306 23.2482V32.7277L67.5928 33.0569C66.0146 32.0928 61.4108 29.2807 59.8327 28.3166ZM63.7234 6.02694H63.3661C62.1176 5.26728 54.7091 0.759306 53.4603 0H53.1031C51.8545 0.759306 44.4454 5.26728 43.1972 6.02694H42.84C41.6802 5.32157 35.2085 1.38432 33.2909 0.217149L32.7551 0.542871V6.79589L32.9341 7.12197C34.8289 8.27486 51.2075 18.2401 53.1031 19.3934H53.4603C55.3558 18.2401 71.7344 8.27486 73.6296 7.12197L73.8082 6.79589V0.542871L73.272 0.217149C71.3545 1.38432 64.8828 5.32157 63.7234 6.02694Z" fill="white"/>
</svg>
