<svg width="65" height="72" viewBox="0 0 65 72" fill="none" xmlns="http://www.w3.org/2000/svg">
<path fill-rule="evenodd" clip-rule="evenodd" d="M47.526 15.2439C37.9944 5.835 31.9234 0.000427246 31.9234 0.000427246C31.9234 0.000427246 25.8394 5.835 16.326 15.2439C11.2976 20.2119 0.000610352 32.5316 0.000610352 44.7819C0.000610352 52.9513 6.69561 59.5727 14.9558 59.5727C20.3768 59.5727 25.1088 56.7159 27.7296 52.4447V52.4499C27.9922 52.131 28.4238 51.8687 28.91 51.8687C29.6796 51.8687 30.3764 52.4061 30.2984 53.0721C29.7212 57.477 27.2148 68.3336 17.3296 71.9979H46.512C36.6294 68.3336 34.123 57.477 33.5484 53.0721C33.4626 52.4061 34.1672 51.8687 34.9368 51.8687C35.41 51.8687 35.8468 52.131 36.112 52.4499L36.1172 52.4447C38.7276 56.7159 43.4648 59.5727 48.8858 59.5727C57.1382 59.5727 63.841 52.9513 63.841 44.7819C63.841 32.5316 52.544 20.2119 47.526 15.2439Z" fill="#D70022"/>
<path fill-rule="evenodd" clip-rule="evenodd" d="M31.9244 15.2697L35.9752 27.6126H49.0974L38.479 35.2446L42.5402 47.5823L31.9244 39.9554L21.3086 47.5823L25.362 35.2446L14.741 27.6126H27.8736L31.9244 15.2697Z" fill="white"/>
</svg>
