<svg width="22" height="22" viewBox="0 0 22 22" fill="none" xmlns="http://www.w3.org/2000/svg">
<path d="M18.1744 8.71986C18.0949 8.57739 17.9787 8.45883 17.8381 8.37624C17.6974 8.29365 17.5373 8.25007 17.3742 8.25007H11.8928L12.8316 1.07712C12.8589 0.869024 12.814 0.657842 12.7044 0.478865C12.5948 0.299888 12.427 0.163954 12.2292 0.0937753C12.0314 0.0235968 11.8155 0.0234246 11.6176 0.0932878C11.4197 0.163151 11.2517 0.298817 11.1418 0.477619L3.83964 12.3532C3.75424 12.4921 3.70743 12.6513 3.70405 12.8144C3.70067 12.9774 3.74084 13.1383 3.82041 13.2807C3.89997 13.423 4.01607 13.5415 4.15671 13.624C4.29736 13.7065 4.45747 13.7501 4.62053 13.7501H10.0119L9.16822 20.9344C9.14385 21.1418 9.191 21.3514 9.30195 21.5283C9.4129 21.7052 9.58087 21.839 9.77822 21.9074C9.97551 21.9759 10.1903 21.9749 10.3869 21.9047C10.5836 21.8344 10.7504 21.6991 10.8597 21.5212L18.1553 9.64695C18.2407 9.50805 18.2874 9.34894 18.2907 9.18596C18.2941 9.02298 18.2539 8.86208 18.1744 8.71986ZM11.474 17.0194L11.9529 12.9408C11.9681 12.8123 11.9559 12.682 11.9171 12.5585C11.8783 12.435 11.8137 12.3211 11.7277 12.2243C11.6417 12.1276 11.5362 12.0502 11.4181 11.9971C11.3 11.9441 11.172 11.9167 11.0426 11.9167H6.2603L10.4573 5.09109L9.93947 9.04777C9.92259 9.1771 9.93341 9.3085 9.97134 9.43331C10.0093 9.55805 10.0734 9.67335 10.1594 9.77134C10.2455 9.86938 10.3514 9.94793 10.4702 10.0017C10.589 10.0556 10.7179 10.0834 10.8484 10.0834H15.7352L11.474 17.0194Z" fill="#ffffff"/>
</svg>
