<svg width="37" height="37" viewBox="0 0 37 37" fill="none" xmlns="http://www.w3.org/2000/svg">
<g clip-path="url(#clip0)">
<path d="M18.4998 34.3022C9.78634 34.3022 2.69775 27.2136 2.69775 18.5001C2.69775 9.78658 9.78634 2.698 18.4998 2.698C27.2133 2.698 34.3019 9.78658 34.3019 18.5001C34.3019 27.2136 27.2133 34.3022 18.4998 34.3022ZM18.4998 5.78133C11.4868 5.78133 5.78109 11.487 5.78109 18.5001C5.78109 25.5131 11.4868 31.2188 18.4998 31.2188C25.5129 31.2188 31.2186 25.5131 31.2186 18.5001C31.2186 11.487 25.5129 5.78133 18.4998 5.78133Z" fill="#050710"/>
<path d="M18.5002 8.47917C17.6492 8.47917 16.9585 7.7885 16.9585 6.9375V1.54167C16.9585 0.690667 17.6492 0 18.5002 0C19.3512 0 20.0418 0.690667 20.0418 1.54167V6.9375C20.0418 7.7885 19.3512 8.47917 18.5002 8.47917Z" fill="#050710"/>
<path d="M35.4585 20.0418H30.0627C29.2117 20.0418 28.521 19.3512 28.521 18.5002C28.521 17.6492 29.2117 16.9585 30.0627 16.9585H35.4585C36.3095 16.9585 37.0002 17.6492 37.0002 18.5002C37.0002 19.3512 36.3095 20.0418 35.4585 20.0418Z" fill="#050710"/>
<path d="M18.5002 36.9999C17.6492 36.9999 16.9585 36.3093 16.9585 35.4583V30.0624C16.9585 29.2114 17.6492 28.5208 18.5002 28.5208C19.3512 28.5208 20.0418 29.2114 20.0418 30.0624V35.4583C20.0418 36.3093 19.3512 36.9999 18.5002 36.9999Z" fill="#050710"/>
<path d="M6.9375 20.0418H1.54167C0.690667 20.0418 0 19.3512 0 18.5002C0 17.6492 0.690667 16.9585 1.54167 16.9585H6.9375C7.7885 16.9585 8.47917 17.6492 8.47917 18.5002C8.47917 19.3512 7.7885 20.0418 6.9375 20.0418Z" fill="#050710"/>
<path d="M18.5 23.125C15.9501 23.125 13.875 21.0499 13.875 18.5C13.875 15.9501 15.9501 13.875 18.5 13.875C21.0499 13.875 23.125 15.9501 23.125 18.5C23.125 21.0499 21.0499 23.125 18.5 23.125ZM18.5 16.9583C17.6505 16.9583 16.9583 17.6505 16.9583 18.5C16.9583 19.3495 17.6505 20.0417 18.5 20.0417C19.3495 20.0417 20.0417 19.3495 20.0417 18.5C20.0417 17.6505 19.3495 16.9583 18.5 16.9583Z" fill="#050710"/>
</g>
<defs>
<clipPath id="clip0">
<rect width="37" height="37" fill="white"/>
</clipPath>
</defs>
</svg>
