<svg width="16" height="16" viewBox="0 0 16 16" fill="none" xmlns="http://www.w3.org/2000/svg">
<g clip-path="url(#clip0)">
<path d="M14.4 13.6534C14.401 13.775 14.3759 13.8954 14.3265 14.0066C14.2771 14.1177 14.2045 14.217 14.1136 14.2979C14.0227 14.3787 13.9156 14.4391 13.7994 14.4751C13.6832 14.5111 13.5607 14.5219 13.44 14.5067C10.4469 14.0935 7.67312 12.7065 5.54667 10.56C3.38587 8.40087 1.99849 5.58862 1.60001 2.56004C1.5902 2.44446 1.60406 2.3281 1.64074 2.21806C1.67742 2.10802 1.73615 2.00662 1.81334 1.92004C1.8905 1.82355 1.98768 1.74497 2.09818 1.68972C2.20868 1.63447 2.32986 1.60387 2.45334 1.60004H4.90667C5.08195 1.61666 5.2478 1.68709 5.38147 1.80166C5.51515 1.91624 5.61011 2.06937 5.65334 2.24004C5.75647 2.89847 5.93544 3.54275 6.18667 4.16004L5.12001 4.69337C4.90943 4.76632 4.73574 4.91875 4.63608 5.11808C4.53642 5.3174 4.51868 5.54781 4.58667 5.76004C5.75119 8.2482 7.75185 10.2489 10.24 11.4134H10.88C11.0694 11.3279 11.2212 11.1761 11.3067 10.9867L11.84 9.92004C12.4657 10.1205 13.1083 10.2633 13.76 10.3467C14.08 10.3467 14.4 10.7734 14.4 11.0934V13.6534ZM13.9733 8.85337L13.44 8.74671C13.0771 8.66636 12.7206 8.55941 12.3733 8.42671C12.0166 8.30511 11.6284 8.31333 11.2772 8.44993C10.9259 8.58652 10.6342 8.84272 10.4533 9.17337L10.24 9.60004C9.46083 9.16407 8.74338 8.62598 8.10667 8.00004C7.48355 7.36092 6.94575 6.64386 6.50667 5.86671L6.82667 5.65337C7.02494 5.57203 7.20485 5.45168 7.35571 5.29948C7.50658 5.14728 7.62533 4.96632 7.70492 4.76734C7.78451 4.56836 7.82332 4.35542 7.81904 4.14116C7.81476 3.9269 7.76748 3.71568 7.68001 3.52004C7.54964 3.17203 7.44273 2.81568 7.36001 2.45337C7.31965 2.31239 7.28408 2.17009 7.25334 2.02671C7.15199 1.45244 6.8494 0.933054 6.39983 0.561663C5.95025 0.190272 5.38308 -0.00883432 4.80001 4.02138e-05H2.45334C2.10805 0.00663496 1.76805 0.0860549 1.45557 0.233104C1.14309 0.380154 0.865174 0.591519 0.640008 0.853374C0.402901 1.10947 0.223163 1.41321 0.112798 1.7443C0.00243225 2.0754 -0.0360204 2.42623 7.51484e-06 2.77337C0.423427 6.13358 1.95312 9.25731 4.34793 11.6521C6.74274 14.0469 9.86647 15.5766 13.2267 16H13.5467C14.1973 16 14.8214 15.7416 15.2814 15.2815C15.7415 14.8214 16 14.1974 16 13.5467V11.2C15.984 10.6354 15.7736 10.0935 15.4044 9.66595C15.0352 9.23841 14.5297 8.95139 13.9733 8.85337Z" fill="white"/>
</g>
<defs>
<clipPath id="clip0">
<rect width="16" height="16" fill="white"/>
</clipPath>
</defs>
</svg>
