<svg width="23" height="22" viewBox="0 0 23 22" fill="none" xmlns="http://www.w3.org/2000/svg">
<path d="M17.2181 0.00793457H5.76368C2.59001 0.00793457 0 2.48533 0 5.52102V16.4948C0 19.5131 2.59001 21.9905 5.76368 21.9905H17.2363C20.41 21.9905 23 19.5131 23 16.4774V5.52102C22.9818 2.48533 20.3918 0.00793457 17.2181 0.00793457ZM18.1118 7.91118C17.3093 12.203 12.8406 15.8319 11.4909 16.6519C10.1412 17.4893 8.91911 16.3204 8.46312 15.4481C7.95242 14.4536 6.4203 9.01031 6.01903 8.57415C5.61776 8.12054 4.41396 9.02776 4.41396 9.02776L3.83029 8.29501C3.83029 8.29501 6.27439 5.52102 8.11657 5.18954C10.1047 4.80571 10.1047 8.05076 10.5789 9.84774C11.0349 11.5924 11.345 12.5868 11.7462 12.5868C12.1475 12.5868 12.9136 11.6098 13.7526 10.1269C14.5916 8.64394 13.7161 7.318 12.0745 8.26011C12.7312 4.52657 18.9144 3.61935 18.1118 7.91118Z" fill="#4AC9FF"/>
</svg>
