<svg xmlns="http://www.w3.org/2000/svg" xmlns:xlink="http://www.w3.org/1999/xlink" version="1.1" id="Слой_1" x="0px" y="0px" viewBox="0 0 60 12" style="enable-background:new 0 0 60 12;" xml:space="preserve">
<style type="text/css">
	.st0{fill:#FFFFFF;}
	.st1{fill:url(#SVGID_1_);}
	.st2{fill:#1B2127;}
</style>
<g>
	<path class="st0" d="M12.3,2.9h1.9l1.1,4l1.2-4h1.6l1.3,4l1.1-4h1.9l-2.1,6.6h-1.7l-1.3-4l-1.3,4h-1.7L12.3,2.9z"/>
	<path class="st0" d="M22.8,6.2c0-1.9,1.3-3.4,3.3-3.4c2.2,0,3.2,1.7,3.2,3.6c0,0.1,0,0.3,0,0.5h-4.6c0.2,0.8,0.8,1.3,1.6,1.3   c0.6,0,1.1-0.2,1.6-0.7L29,8.4c-0.6,0.8-1.5,1.2-2.7,1.2C24.3,9.7,22.8,8.3,22.8,6.2z M27.5,5.7c-0.1-0.8-0.6-1.4-1.4-1.4   c-0.8,0-1.3,0.6-1.4,1.4H27.5z"/>
	<path class="st0" d="M32.6,8.7v0.9h-1.9v-9h1.9v3.3c0.5-0.6,1.1-1.1,2.1-1.1c1.5,0,3,1.2,3,3.4c0,2.2-1.4,3.4-3,3.4   C33.6,9.6,33,9.2,32.6,8.7z M35.7,6.2c0-1.1-0.7-1.8-1.6-1.8s-1.6,0.7-1.6,1.8c0,1.1,0.7,1.8,1.6,1.8S35.7,7.4,35.7,6.2z"/>
	<path class="st0" d="M39,0.6h2v1.7h-2V0.6z M39.1,2.9h1.9v6.6h-1.9V2.9z"/>
	<path class="st0" d="M42.7,2.9h1.9v0.9c0.4-0.6,1-1.1,1.9-1.1c1.4,0,2.2,0.9,2.2,2.4v4.3h-1.9V5.9c0-0.9-0.4-1.3-1.1-1.3   c-0.7,0-1.2,0.5-1.2,1.3v3.7h-1.9V2.9z"/>
	<path class="st0" d="M50.3,0.6h1.9v4.8l2.2-2.4h2.2l-2.5,2.6l2.6,4h-2.1l-1.7-2.7l-0.7,0.7v2h-1.9V0.6z"/>
	<path class="st0" d="M57.5,7.6h2v2h-2V7.6z"/>
</g>
<g>
	<radialGradient id="SVGID_1_" cx="10.9309" cy="1.412" r="10.6433" fx="14.789" fy="2.4284" gradientUnits="userSpaceOnUse">
		<stop offset="0.327" style="stop-color:#A165A4"/>
		<stop offset="0.4461" style="stop-color:#9963A2"/>
		<stop offset="0.6307" style="stop-color:#835E9B"/>
		<stop offset="0.8557" style="stop-color:#605690"/>
	</radialGradient>
	<path class="st1" d="M11.3,6.2c0,2.8-2.3,5.2-5.2,5.2S1,9,1,6.2c0-0.8,0.2-1.6,0.5-2.3C1.8,3.4,2.1,3,2.5,2.6C3.4,1.6,4.7,1,6.2,1   C9,1,11.3,3.3,11.3,6.2z"/>
</g>
<g>
	<path class="st2" d="M6.8,2.4L6.4,3.9l0,0.1l0,0.2l0,0L6.1,5.3l-0.3-1l0,0L5.6,3.8L5.5,3.5L5.2,2.4H4.1L3.9,2.8l0,0L3.5,4.3l0,0   L3.2,5.3L2.9,4.4l0,0L2.5,2.6C2.1,3,1.8,3.4,1.5,3.9l0.6,1.9l0.4,1.3h1.2l0.2-0.7l0.7-2.1l0,0l0,0l0,0l0,0l0.1,0.4L5,5.3l0,0l0.3,1   l0,0l0.2,0.8h1.2l1-3.2l0,0l0.5-1.5H6.8z"/>
	<path class="st2" d="M7.6,5.7v1.4H9V5.7H7.6z"/>
</g>
</svg>