<svg width="23" height="16" viewBox="0 0 23 16" fill="none" xmlns="http://www.w3.org/2000/svg">
<path d="M22.5261 2.33723C22.261 1.42333 21.4842 0.702959 20.499 0.456867C18.6991 0 11.4998 0 11.4998 0C11.4998 0 4.30055 0 2.5007 0.439451C1.53453 0.685381 0.738751 1.42349 0.473607 2.33723C0 4.00649 0 7.46839 0 7.46839C0 7.46839 0 10.9477 0.473607 12.5996C0.738927 13.5133 1.51559 14.2339 2.50088 14.4799C4.3195 14.9368 11.5 14.9368 11.5 14.9368C11.5 14.9368 18.6991 14.9368 20.499 14.4973C21.4843 14.2515 22.261 13.5309 22.5263 12.6171C22.9999 10.9477 22.9999 7.48597 22.9999 7.48597C22.9999 7.48597 23.0188 4.00649 22.5261 2.33723Z" fill="#FF0000"/>
<path d="M9.20752 10.6666L15.1942 7.46838L9.20752 4.27014V10.6666Z" fill="white"/>
</svg>
